<?xml version="1.0" encoding="UTF-8" standalone="no"?>
<!DOCTYPE svg PUBLIC "-//W3C//DTD SVG 1.1//EN"
 "http://www.w3.org/Graphics/SVG/1.1/DTD/svg11.dtd">
<!-- Generated by graphviz version 7.0.1 (20221109.1506)
 -->
<!-- Title: snakemake_dag Pages: 1 -->
<svg width="465pt" height="1273pt"
 viewBox="0.00 0.00 465.00 1273.00" xmlns="http://www.w3.org/2000/svg" xmlns:xlink="http://www.w3.org/1999/xlink">
<g id="graph0" class="graph" transform="scale(1 1) rotate(0) translate(4 1269)">
<title>snakemake_dag</title>
<polygon fill="white" stroke="none" points="-4,4 -4,-1269 461,-1269 461,4 -4,4"/>
<!-- 0 -->
<g id="node1" class="node">
<title>0</title>
<path fill="none" stroke="#d8bc56" stroke-width="2" d="M216,-36C216,-36 186,-36 186,-36 180,-36 174,-30 174,-24 174,-24 174,-12 174,-12 174,-6 180,0 186,0 186,0 216,0 216,0 222,0 228,-6 228,-12 228,-12 228,-24 228,-24 228,-30 222,-36 216,-36"/>
<text text-anchor="middle" x="201" y="-15.5" font-family="sans" font-size="10.00">all</text>
</g>
<!-- 1 -->
<g id="node2" class="node">
<title>1</title>
<path fill="none" stroke="#56d8a2" stroke-width="2" d="M259.5,-108C259.5,-108 142.5,-108 142.5,-108 136.5,-108 130.5,-102 130.5,-96 130.5,-96 130.5,-84 130.5,-84 130.5,-78 136.5,-72 142.5,-72 142.5,-72 259.5,-72 259.5,-72 265.5,-72 271.5,-78 271.5,-84 271.5,-84 271.5,-96 271.5,-96 271.5,-102 265.5,-108 259.5,-108"/>
<text text-anchor="middle" x="201" y="-87.5" font-family="sans" font-size="10.00">gatk_split_multi_allelic_sites</text>
</g>
<!-- 1&#45;&gt;0 -->
<g id="edge1" class="edge">
<title>1&#45;&gt;0</title>
<path fill="none" stroke="grey" stroke-width="2" d="M201,-71.34C201,-64.75 201,-57.08 201,-49.67"/>
<polygon fill="grey" stroke="grey" stroke-width="2" points="204.5,-49.93 201,-39.93 197.5,-49.93 204.5,-49.93"/>
</g>
<!-- 2 -->
<g id="node3" class="node">
<title>2</title>
<path fill="none" stroke="#5673d8" stroke-width="2" d="M251.5,-180C251.5,-180 150.5,-180 150.5,-180 144.5,-180 138.5,-174 138.5,-168 138.5,-168 138.5,-156 138.5,-156 138.5,-150 144.5,-144 150.5,-144 150.5,-144 251.5,-144 251.5,-144 257.5,-144 263.5,-150 263.5,-156 263.5,-156 263.5,-168 263.5,-168 263.5,-174 257.5,-180 251.5,-180"/>
<text text-anchor="middle" x="201" y="-159.5" font-family="sans" font-size="10.00">gatk_filter_contamination</text>
</g>
<!-- 2&#45;&gt;1 -->
<g id="edge4" class="edge">
<title>2&#45;&gt;1</title>
<path fill="none" stroke="grey" stroke-width="2" d="M201,-143.34C201,-136.75 201,-129.08 201,-121.67"/>
<polygon fill="grey" stroke="grey" stroke-width="2" points="204.5,-121.93 201,-111.93 197.5,-121.93 204.5,-121.93"/>
</g>
<!-- 3 -->
<g id="node4" class="node">
<title>3</title>
<path fill="none" stroke="#d86e56" stroke-width="2" d="M303.5,-324C303.5,-324 220.5,-324 220.5,-324 214.5,-324 208.5,-318 208.5,-312 208.5,-312 208.5,-300 208.5,-300 208.5,-294 214.5,-288 220.5,-288 220.5,-288 303.5,-288 303.5,-288 309.5,-288 315.5,-294 315.5,-300 315.5,-300 315.5,-312 315.5,-312 315.5,-318 309.5,-324 303.5,-324"/>
<text text-anchor="middle" x="262" y="-303.5" font-family="sans" font-size="10.00">gatk_select_variants</text>
</g>
<!-- 3&#45;&gt;2 -->
<g id="edge5" class="edge">
<title>3&#45;&gt;2</title>
<path fill="none" stroke="grey" stroke-width="2" d="M244.54,-287.29C235.93,-277.6 226.1,-264.96 220,-252 211.35,-233.64 206.6,-211.29 204.01,-193.59"/>
<polygon fill="grey" stroke="grey" stroke-width="2" points="207.5,-193.31 202.77,-183.82 200.56,-194.18 207.5,-193.31"/>
</g>
<!-- 23 -->
<g id="node24" class="node">
<title>23</title>
<path fill="none" stroke="#59d856" stroke-width="2" d="M283,-252C283,-252 241,-252 241,-252 235,-252 229,-246 229,-240 229,-240 229,-228 229,-228 229,-222 235,-216 241,-216 241,-216 283,-216 283,-216 289,-216 295,-222 295,-228 295,-228 295,-240 295,-240 295,-246 289,-252 283,-252"/>
<text text-anchor="middle" x="262" y="-231.5" font-family="sans" font-size="10.00">haplocheck</text>
</g>
<!-- 3&#45;&gt;23 -->
<g id="edge32" class="edge">
<title>3&#45;&gt;23</title>
<path fill="none" stroke="grey" stroke-width="2" d="M262,-287.34C262,-280.75 262,-273.08 262,-265.67"/>
<polygon fill="grey" stroke="grey" stroke-width="2" points="265.5,-265.93 262,-255.93 258.5,-265.93 265.5,-265.93"/>
</g>
<!-- 4 -->
<g id="node5" class="node">
<title>4</title>
<path fill="none" stroke="#d8a456" stroke-width="2" d="M336,-396C336,-396 198,-396 198,-396 192,-396 186,-390 186,-384 186,-384 186,-372 186,-372 186,-366 192,-360 198,-360 198,-360 336,-360 336,-360 342,-360 348,-366 348,-372 348,-372 348,-384 348,-384 348,-390 342,-396 336,-396"/>
<text text-anchor="middle" x="267" y="-375.5" font-family="sans" font-size="10.00">gatk_left_align_and_trim_variants</text>
</g>
<!-- 4&#45;&gt;3 -->
<g id="edge8" class="edge">
<title>4&#45;&gt;3</title>
<path fill="none" stroke="grey" stroke-width="2" d="M265.74,-359.34C265.27,-352.75 264.72,-345.08 264.19,-337.67"/>
<polygon fill="grey" stroke="grey" stroke-width="2" points="267.7,-337.65 263.49,-327.92 260.72,-338.15 267.7,-337.65"/>
</g>
<!-- 5 -->
<g id="node6" class="node">
<title>5</title>
<path fill="none" stroke="#56a2d8" stroke-width="2" d="M297,-468C297,-468 211,-468 211,-468 205,-468 199,-462 199,-456 199,-456 199,-444 199,-444 199,-438 205,-432 211,-432 211,-432 297,-432 297,-432 303,-432 309,-438 309,-444 309,-444 309,-456 309,-456 309,-462 303,-468 297,-468"/>
<text text-anchor="middle" x="254" y="-447.5" font-family="sans" font-size="10.00">gatk_variant_filtration</text>
</g>
<!-- 5&#45;&gt;4 -->
<g id="edge9" class="edge">
<title>5&#45;&gt;4</title>
<path fill="none" stroke="grey" stroke-width="2" d="M257.28,-431.34C258.5,-424.75 259.93,-417.08 261.3,-409.67"/>
<polygon fill="grey" stroke="grey" stroke-width="2" points="264.74,-410.35 263.12,-399.88 257.86,-409.07 264.74,-410.35"/>
</g>
<!-- 6 -->
<g id="node7" class="node">
<title>6</title>
<path fill="none" stroke="#bed856" stroke-width="2" d="M311.5,-540C311.5,-540 198.5,-540 198.5,-540 192.5,-540 186.5,-534 186.5,-528 186.5,-528 186.5,-516 186.5,-516 186.5,-510 192.5,-504 198.5,-504 198.5,-504 311.5,-504 311.5,-504 317.5,-504 323.5,-510 323.5,-516 323.5,-516 323.5,-528 323.5,-528 323.5,-534 317.5,-540 311.5,-540"/>
<text text-anchor="middle" x="255" y="-519.5" font-family="sans" font-size="10.00">gatk_filter_mutect_calls_mt</text>
</g>
<!-- 6&#45;&gt;5 -->
<g id="edge10" class="edge">
<title>6&#45;&gt;5</title>
<path fill="none" stroke="grey" stroke-width="2" d="M254.75,-503.34C254.65,-496.75 254.54,-489.08 254.44,-481.67"/>
<polygon fill="grey" stroke="grey" stroke-width="2" points="257.94,-481.88 254.3,-471.93 250.94,-481.98 257.94,-481.88"/>
</g>
<!-- 7 -->
<g id="node8" class="node">
<title>7</title>
<path fill="none" stroke="#56d8c1" stroke-width="2" d="M304,-612C304,-612 236,-612 236,-612 230,-612 224,-606 224,-600 224,-600 224,-588 224,-588 224,-582 230,-576 236,-576 236,-576 304,-576 304,-576 310,-576 316,-582 316,-588 316,-588 316,-600 316,-600 316,-606 310,-612 304,-612"/>
<text text-anchor="middle" x="270" y="-591.5" font-family="sans" font-size="10.00">gatk_merge_vcfs</text>
</g>
<!-- 7&#45;&gt;6 -->
<g id="edge11" class="edge">
<title>7&#45;&gt;6</title>
<path fill="none" stroke="grey" stroke-width="2" d="M266.21,-575.34C264.79,-568.67 263.12,-560.89 261.51,-553.39"/>
<polygon fill="grey" stroke="grey" stroke-width="2" points="264.99,-552.91 259.47,-543.86 258.14,-554.37 264.99,-552.91"/>
</g>
<!-- 8 -->
<g id="node9" class="node">
<title>8</title>
<path fill="none" stroke="#70d856" stroke-width="2" d="M256,-684C256,-684 186,-684 186,-684 180,-684 174,-678 174,-672 174,-672 174,-660 174,-660 174,-654 180,-648 186,-648 186,-648 256,-648 256,-648 262,-648 268,-654 268,-660 268,-660 268,-672 268,-672 268,-678 262,-684 256,-684"/>
<text text-anchor="middle" x="221" y="-663.5" font-family="sans" font-size="10.00">gatk_lift_over_vcf</text>
</g>
<!-- 8&#45;&gt;7 -->
<g id="edge13" class="edge">
<title>8&#45;&gt;7</title>
<path fill="none" stroke="grey" stroke-width="2" d="M233.36,-647.34C238.43,-640.1 244.43,-631.53 250.08,-623.45"/>
<polygon fill="grey" stroke="grey" stroke-width="2" points="252.87,-625.58 255.73,-615.38 247.13,-621.57 252.87,-625.58"/>
</g>
<!-- 9 -->
<g id="node10" class="node">
<title>9</title>
<path fill="none" stroke="#d6d856" stroke-width="2" d="M172,-756C172,-756 120,-756 120,-756 114,-756 108,-750 108,-744 108,-744 108,-732 108,-732 108,-726 114,-720 120,-720 120,-720 172,-720 172,-720 178,-720 184,-726 184,-732 184,-732 184,-744 184,-744 184,-750 178,-756 172,-756"/>
<text text-anchor="middle" x="146" y="-735.5" font-family="sans" font-size="10.00">gatk_mutect2</text>
</g>
<!-- 9&#45;&gt;8 -->
<g id="edge15" class="edge">
<title>9&#45;&gt;8</title>
<path fill="none" stroke="grey" stroke-width="2" d="M164.93,-719.34C173.3,-711.52 183.33,-702.16 192.57,-693.53"/>
<polygon fill="grey" stroke="grey" stroke-width="2" points="194.68,-696.35 199.61,-686.97 189.91,-691.23 194.68,-696.35"/>
</g>
<!-- 22 -->
<g id="node23" class="node">
<title>22</title>
<path fill="none" stroke="#d85656" stroke-width="2" d="M193.5,-612C193.5,-612 122.5,-612 122.5,-612 116.5,-612 110.5,-606 110.5,-600 110.5,-600 110.5,-588 110.5,-588 110.5,-582 116.5,-576 122.5,-576 122.5,-576 193.5,-576 193.5,-576 199.5,-576 205.5,-582 205.5,-588 205.5,-588 205.5,-600 205.5,-600 205.5,-606 199.5,-612 193.5,-612"/>
<text text-anchor="middle" x="158" y="-591.5" font-family="sans" font-size="10.00">gatk_merge_stats</text>
</g>
<!-- 9&#45;&gt;22 -->
<g id="edge31" class="edge">
<title>9&#45;&gt;22</title>
<path fill="none" stroke="grey" stroke-width="2" d="M147.52,-719.02C149.5,-695.54 153.01,-654.11 155.41,-625.64"/>
<polygon fill="grey" stroke="grey" stroke-width="2" points="158.88,-626.11 156.24,-615.85 151.91,-625.52 158.88,-626.11"/>
</g>
<!-- 10 -->
<g id="node11" class="node">
<title>10</title>
<path fill="none" stroke="#a7d856" stroke-width="2" d="M171.5,-828C171.5,-828 114.5,-828 114.5,-828 108.5,-828 102.5,-822 102.5,-816 102.5,-816 102.5,-804 102.5,-804 102.5,-798 108.5,-792 114.5,-792 114.5,-792 171.5,-792 171.5,-792 177.5,-792 183.5,-798 183.5,-804 183.5,-804 183.5,-816 183.5,-816 183.5,-822 177.5,-828 171.5,-828"/>
<text text-anchor="middle" x="143" y="-807.5" font-family="sans" font-size="10.00">gatk_sort_sam</text>
</g>
<!-- 10&#45;&gt;9 -->
<g id="edge16" class="edge">
<title>10&#45;&gt;9</title>
<path fill="none" stroke="grey" stroke-width="2" d="M143.76,-791.34C144.04,-784.75 144.37,-777.08 144.69,-769.67"/>
<polygon fill="grey" stroke="grey" stroke-width="2" points="148.17,-770.07 145.1,-759.93 141.18,-769.77 148.17,-770.07"/>
</g>
<!-- 25 -->
<g id="node26" class="node">
<title>25</title>
<path fill="none" stroke="#568ad8" stroke-width="2" d="M118,-540C118,-540 12,-540 12,-540 6,-540 0,-534 0,-528 0,-528 0,-516 0,-516 0,-510 6,-504 12,-504 12,-504 118,-504 118,-504 124,-504 130,-510 130,-516 130,-516 130,-528 130,-528 130,-534 124,-540 118,-540"/>
<text text-anchor="middle" x="65" y="-519.5" font-family="sans" font-size="10.00">gatk_collect_wgs_metrics</text>
</g>
<!-- 10&#45;&gt;25 -->
<g id="edge34" class="edge">
<title>10&#45;&gt;25</title>
<path fill="none" stroke="grey" stroke-width="2" d="M123.88,-791.12C114.87,-781.57 104.84,-769.11 99,-756 68.86,-688.31 64.36,-599.67 64.3,-553.68"/>
<polygon fill="grey" stroke="grey" stroke-width="2" points="67.79,-553.9 64.37,-543.88 60.79,-553.85 67.79,-553.9"/>
</g>
<!-- 11 -->
<g id="node12" class="node">
<title>11</title>
<path fill="none" stroke="#d88d56" stroke-width="2" d="M187,-900C187,-900 99,-900 99,-900 93,-900 87,-894 87,-888 87,-888 87,-876 87,-876 87,-870 93,-864 99,-864 99,-864 187,-864 187,-864 193,-864 199,-870 199,-876 199,-876 199,-888 199,-888 199,-894 193,-900 187,-900"/>
<text text-anchor="middle" x="143" y="-879.5" font-family="sans" font-size="10.00">gatk_mark_duplicates</text>
</g>
<!-- 11&#45;&gt;10 -->
<g id="edge17" class="edge">
<title>11&#45;&gt;10</title>
<path fill="none" stroke="grey" stroke-width="2" d="M143,-863.34C143,-856.75 143,-849.08 143,-841.67"/>
<polygon fill="grey" stroke="grey" stroke-width="2" points="146.5,-841.93 143,-831.93 139.5,-841.93 146.5,-841.93"/>
</g>
<!-- 12 -->
<g id="node13" class="node">
<title>12</title>
<path fill="none" stroke="#56c1d8" stroke-width="2" d="M200.5,-972C200.5,-972 85.5,-972 85.5,-972 79.5,-972 73.5,-966 73.5,-960 73.5,-960 73.5,-948 73.5,-948 73.5,-942 79.5,-936 85.5,-936 85.5,-936 200.5,-936 200.5,-936 206.5,-936 212.5,-942 212.5,-948 212.5,-948 212.5,-960 212.5,-960 212.5,-966 206.5,-972 200.5,-972"/>
<text text-anchor="middle" x="143" y="-951.5" font-family="sans" font-size="10.00">gatk_merge_bam_alignment</text>
</g>
<!-- 12&#45;&gt;11 -->
<g id="edge18" class="edge">
<title>12&#45;&gt;11</title>
<path fill="none" stroke="grey" stroke-width="2" d="M143,-935.34C143,-928.75 143,-921.08 143,-913.67"/>
<polygon fill="grey" stroke="grey" stroke-width="2" points="146.5,-913.93 143,-903.93 139.5,-913.93 146.5,-913.93"/>
</g>
<!-- 13 -->
<g id="node14" class="node">
<title>13</title>
<path fill="none" stroke="#56d8d8" stroke-width="2" d="M218,-1044C218,-1044 146,-1044 146,-1044 140,-1044 134,-1038 134,-1032 134,-1032 134,-1020 134,-1020 134,-1014 140,-1008 146,-1008 146,-1008 218,-1008 218,-1008 224,-1008 230,-1014 230,-1020 230,-1020 230,-1032 230,-1032 230,-1038 224,-1044 218,-1044"/>
<text text-anchor="middle" x="182" y="-1029" font-family="sans" font-size="10.00">bwa_mem_mito</text>
<text text-anchor="middle" x="182" y="-1018" font-family="sans" font-size="10.00">mt_ref: mt_shifted</text>
</g>
<!-- 13&#45;&gt;12 -->
<g id="edge19" class="edge">
<title>13&#45;&gt;12</title>
<path fill="none" stroke="grey" stroke-width="2" d="M172.16,-1007.34C168.26,-1000.34 163.68,-992.12 159.31,-984.28"/>
<polygon fill="grey" stroke="grey" stroke-width="2" points="162.37,-982.58 154.45,-975.55 156.26,-985.99 162.37,-982.58"/>
</g>
<!-- 14 -->
<g id="node15" class="node">
<title>14</title>
<path fill="none" stroke="#88d856" stroke-width="2" d="M272,-1116C272,-1116 196,-1116 196,-1116 190,-1116 184,-1110 184,-1104 184,-1104 184,-1092 184,-1092 184,-1086 190,-1080 196,-1080 196,-1080 272,-1080 272,-1080 278,-1080 284,-1086 284,-1092 284,-1092 284,-1104 284,-1104 284,-1110 278,-1116 272,-1116"/>
<text text-anchor="middle" x="234" y="-1095.5" font-family="sans" font-size="10.00">gatk_sam_to_fastq</text>
</g>
<!-- 14&#45;&gt;13 -->
<g id="edge21" class="edge">
<title>14&#45;&gt;13</title>
<path fill="none" stroke="grey" stroke-width="2" d="M220.88,-1079.34C215.44,-1072.01 208.99,-1063.34 202.93,-1055.18"/>
<polygon fill="grey" stroke="grey" stroke-width="2" points="205.88,-1053.27 197.1,-1047.33 200.26,-1057.45 205.88,-1053.27"/>
</g>
<!-- 21 -->
<g id="node22" class="node">
<title>21</title>
<path fill="none" stroke="#56d8d8" stroke-width="2" d="M322,-1044C322,-1044 260,-1044 260,-1044 254,-1044 248,-1038 248,-1032 248,-1032 248,-1020 248,-1020 248,-1014 254,-1008 260,-1008 260,-1008 322,-1008 322,-1008 328,-1008 334,-1014 334,-1020 334,-1020 334,-1032 334,-1032 334,-1038 328,-1044 322,-1044"/>
<text text-anchor="middle" x="291" y="-1029" font-family="sans" font-size="10.00">bwa_mem_mito</text>
<text text-anchor="middle" x="291" y="-1018" font-family="sans" font-size="10.00">mt_ref: mt</text>
</g>
<!-- 14&#45;&gt;21 -->
<g id="edge29" class="edge">
<title>14&#45;&gt;21</title>
<path fill="none" stroke="grey" stroke-width="2" d="M248.38,-1079.34C254.41,-1071.93 261.57,-1063.14 268.28,-1054.9"/>
<polygon fill="grey" stroke="grey" stroke-width="2" points="270.91,-1057.21 274.51,-1047.25 265.48,-1052.79 270.91,-1057.21"/>
</g>
<!-- 15 -->
<g id="node16" class="node">
<title>15</title>
<path fill="none" stroke="#56d88a" stroke-width="2" d="M266.5,-1188C266.5,-1188 201.5,-1188 201.5,-1188 195.5,-1188 189.5,-1182 189.5,-1176 189.5,-1176 189.5,-1164 189.5,-1164 189.5,-1158 195.5,-1152 201.5,-1152 201.5,-1152 266.5,-1152 266.5,-1152 272.5,-1152 278.5,-1158 278.5,-1164 278.5,-1164 278.5,-1176 278.5,-1176 278.5,-1182 272.5,-1188 266.5,-1188"/>
<text text-anchor="middle" x="234" y="-1167.5" font-family="sans" font-size="10.00">gatk_revert_sam</text>
</g>
<!-- 15&#45;&gt;12 -->
<g id="edge20" class="edge">
<title>15&#45;&gt;12</title>
<path fill="none" stroke="grey" stroke-width="2" d="M209.34,-1151.21C181.88,-1129.57 139.46,-1090.16 125,-1044 118.93,-1024.6 123.54,-1002.17 129.61,-984.68"/>
<polygon fill="grey" stroke="grey" stroke-width="2" points="132.82,-986.08 133.17,-975.49 126.29,-983.54 132.82,-986.08"/>
</g>
<!-- 15&#45;&gt;14 -->
<g id="edge22" class="edge">
<title>15&#45;&gt;14</title>
<path fill="none" stroke="grey" stroke-width="2" d="M234,-1151.34C234,-1144.75 234,-1137.08 234,-1129.67"/>
<polygon fill="grey" stroke="grey" stroke-width="2" points="237.5,-1129.93 234,-1119.93 230.5,-1129.93 237.5,-1129.93"/>
</g>
<!-- 20 -->
<g id="node21" class="node">
<title>20</title>
<path fill="none" stroke="#56c1d8" stroke-width="2" d="M383.5,-972C383.5,-972 268.5,-972 268.5,-972 262.5,-972 256.5,-966 256.5,-960 256.5,-960 256.5,-948 256.5,-948 256.5,-942 262.5,-936 268.5,-936 268.5,-936 383.5,-936 383.5,-936 389.5,-936 395.5,-942 395.5,-948 395.5,-948 395.5,-960 395.5,-960 395.5,-966 389.5,-972 383.5,-972"/>
<text text-anchor="middle" x="326" y="-951.5" font-family="sans" font-size="10.00">gatk_merge_bam_alignment</text>
</g>
<!-- 15&#45;&gt;20 -->
<g id="edge28" class="edge">
<title>15&#45;&gt;20</title>
<path fill="none" stroke="grey" stroke-width="2" d="M258.66,-1151.21C286.12,-1129.57 328.54,-1090.16 343,-1044 349.06,-1024.65 344.71,-1002.21 338.89,-984.71"/>
<polygon fill="grey" stroke="grey" stroke-width="2" points="342.24,-983.68 335.47,-975.52 335.68,-986.12 342.24,-983.68"/>
</g>
<!-- 16 -->
<g id="node17" class="node">
<title>16</title>
<path fill="none" stroke="#56d873" stroke-width="2" d="M269.5,-1265C269.5,-1265 198.5,-1265 198.5,-1265 192.5,-1265 186.5,-1259 186.5,-1253 186.5,-1253 186.5,-1236 186.5,-1236 186.5,-1230 192.5,-1224 198.5,-1224 198.5,-1224 269.5,-1224 269.5,-1224 275.5,-1224 281.5,-1230 281.5,-1236 281.5,-1236 281.5,-1253 281.5,-1253 281.5,-1259 275.5,-1265 269.5,-1265"/>
<text text-anchor="middle" x="234" y="-1253" font-family="sans" font-size="10.00">gatk_print_reads</text>
<text text-anchor="middle" x="234" y="-1242" font-family="sans" font-size="10.00">sample: NA12878</text>
<text text-anchor="middle" x="234" y="-1231" font-family="sans" font-size="10.00">type: N</text>
</g>
<!-- 16&#45;&gt;15 -->
<g id="edge23" class="edge">
<title>16&#45;&gt;15</title>
<path fill="none" stroke="grey" stroke-width="2" d="M234,-1223.3C234,-1216.58 234,-1208.93 234,-1201.6"/>
<polygon fill="grey" stroke="grey" stroke-width="2" points="237.5,-1201.65 234,-1191.65 230.5,-1201.65 237.5,-1201.65"/>
</g>
<!-- 17 -->
<g id="node18" class="node">
<title>17</title>
<path fill="none" stroke="#d6d856" stroke-width="2" d="M350,-684C350,-684 298,-684 298,-684 292,-684 286,-678 286,-672 286,-672 286,-660 286,-660 286,-654 292,-648 298,-648 298,-648 350,-648 350,-648 356,-648 362,-654 362,-660 362,-660 362,-672 362,-672 362,-678 356,-684 350,-684"/>
<text text-anchor="middle" x="324" y="-663.5" font-family="sans" font-size="10.00">gatk_mutect2</text>
</g>
<!-- 17&#45;&gt;7 -->
<g id="edge14" class="edge">
<title>17&#45;&gt;7</title>
<path fill="none" stroke="grey" stroke-width="2" d="M310.37,-647.34C304.73,-640.01 298.03,-631.34 291.74,-623.18"/>
<polygon fill="grey" stroke="grey" stroke-width="2" points="294.54,-621.08 285.66,-615.3 289,-625.35 294.54,-621.08"/>
</g>
<!-- 17&#45;&gt;22 -->
<g id="edge30" class="edge">
<title>17&#45;&gt;22</title>
<path fill="none" stroke="grey" stroke-width="2" d="M285.08,-648.59C263.36,-639.43 235.96,-627.87 212.16,-617.84"/>
<polygon fill="grey" stroke="grey" stroke-width="2" points="213.82,-614.74 203.25,-614.08 211.1,-621.19 213.82,-614.74"/>
</g>
<!-- 18 -->
<g id="node19" class="node">
<title>18</title>
<path fill="none" stroke="#a7d856" stroke-width="2" d="M354.5,-756C354.5,-756 297.5,-756 297.5,-756 291.5,-756 285.5,-750 285.5,-744 285.5,-744 285.5,-732 285.5,-732 285.5,-726 291.5,-720 297.5,-720 297.5,-720 354.5,-720 354.5,-720 360.5,-720 366.5,-726 366.5,-732 366.5,-732 366.5,-744 366.5,-744 366.5,-750 360.5,-756 354.5,-756"/>
<text text-anchor="middle" x="326" y="-735.5" font-family="sans" font-size="10.00">gatk_sort_sam</text>
</g>
<!-- 18&#45;&gt;17 -->
<g id="edge24" class="edge">
<title>18&#45;&gt;17</title>
<path fill="none" stroke="grey" stroke-width="2" d="M325.5,-719.34C325.31,-712.75 325.09,-705.08 324.88,-697.67"/>
<polygon fill="grey" stroke="grey" stroke-width="2" points="328.38,-697.82 324.6,-687.93 321.39,-698.02 328.38,-697.82"/>
</g>
<!-- 24 -->
<g id="node25" class="node">
<title>24</title>
<path fill="none" stroke="#568ad8" stroke-width="2" d="M445,-468C445,-468 339,-468 339,-468 333,-468 327,-462 327,-456 327,-456 327,-444 327,-444 327,-438 333,-432 339,-432 339,-432 445,-432 445,-432 451,-432 457,-438 457,-444 457,-444 457,-456 457,-456 457,-462 451,-468 445,-468"/>
<text text-anchor="middle" x="392" y="-447.5" font-family="sans" font-size="10.00">gatk_collect_wgs_metrics</text>
</g>
<!-- 18&#45;&gt;24 -->
<g id="edge33" class="edge">
<title>18&#45;&gt;24</title>
<path fill="none" stroke="grey" stroke-width="2" d="M345.87,-719.33C355.16,-709.84 365.4,-697.36 371,-684 399.46,-616.11 398.15,-527.55 394.95,-481.63"/>
<polygon fill="grey" stroke="grey" stroke-width="2" points="398.46,-481.52 394.17,-471.83 391.48,-482.08 398.46,-481.52"/>
</g>
<!-- 19 -->
<g id="node20" class="node">
<title>19</title>
<path fill="none" stroke="#d88d56" stroke-width="2" d="M370,-900C370,-900 282,-900 282,-900 276,-900 270,-894 270,-888 270,-888 270,-876 270,-876 270,-870 276,-864 282,-864 282,-864 370,-864 370,-864 376,-864 382,-870 382,-876 382,-876 382,-888 382,-888 382,-894 376,-900 370,-900"/>
<text text-anchor="middle" x="326" y="-879.5" font-family="sans" font-size="10.00">gatk_mark_duplicates</text>
</g>
<!-- 19&#45;&gt;18 -->
<g id="edge25" class="edge">
<title>19&#45;&gt;18</title>
<path fill="none" stroke="grey" stroke-width="2" d="M326,-863.02C326,-839.54 326,-798.11 326,-769.64"/>
<polygon fill="grey" stroke="grey" stroke-width="2" points="329.5,-769.87 326,-759.87 322.5,-769.87 329.5,-769.87"/>
</g>
<!-- 20&#45;&gt;19 -->
<g id="edge26" class="edge">
<title>20&#45;&gt;19</title>
<path fill="none" stroke="grey" stroke-width="2" d="M326,-935.34C326,-928.75 326,-921.08 326,-913.67"/>
<polygon fill="grey" stroke="grey" stroke-width="2" points="329.5,-913.93 326,-903.93 322.5,-913.93 329.5,-913.93"/>
</g>
<!-- 21&#45;&gt;20 -->
<g id="edge27" class="edge">
<title>21&#45;&gt;20</title>
<path fill="none" stroke="grey" stroke-width="2" d="M299.83,-1007.34C303.33,-1000.34 307.44,-992.12 311.36,-984.28"/>
<polygon fill="grey" stroke="grey" stroke-width="2" points="314.35,-986.12 315.7,-975.61 308.09,-982.99 314.35,-986.12"/>
</g>
<!-- 22&#45;&gt;2 -->
<g id="edge6" class="edge">
<title>22&#45;&gt;2</title>
<path fill="none" stroke="grey" stroke-width="2" d="M158,-575.07C158,-548.13 158,-495.62 158,-451 158,-451 158,-451 158,-305 158,-264.79 173.99,-220.82 186.46,-192.63"/>
<polygon fill="grey" stroke="grey" stroke-width="2" points="189.62,-194.15 190.62,-183.61 183.26,-191.23 189.62,-194.15"/>
</g>
<!-- 22&#45;&gt;6 -->
<g id="edge12" class="edge">
<title>22&#45;&gt;6</title>
<path fill="none" stroke="grey" stroke-width="2" d="M182.73,-575.15C194.02,-567.01 207.59,-557.22 219.9,-548.33"/>
<polygon fill="grey" stroke="grey" stroke-width="2" points="221.8,-551.27 227.86,-542.58 217.71,-545.6 221.8,-551.27"/>
</g>
<!-- 23&#45;&gt;2 -->
<g id="edge7" class="edge">
<title>23&#45;&gt;2</title>
<path fill="none" stroke="grey" stroke-width="2" d="M246.61,-215.34C240.08,-207.85 232.33,-198.95 225.08,-190.63"/>
<polygon fill="grey" stroke="grey" stroke-width="2" points="227.8,-188.42 218.59,-183.18 222.52,-193.02 227.8,-188.42"/>
</g>
<!-- 24&#45;&gt;0 -->
<g id="edge2" class="edge">
<title>24&#45;&gt;0</title>
<path fill="none" stroke="grey" stroke-width="2" d="M390.34,-431.09C388,-404.17 384,-351.69 384,-307 384,-307 384,-307 384,-161 384,-89.15 294.85,-48.42 241,-30.37"/>
<polygon fill="grey" stroke="grey" stroke-width="2" points="242.27,-27.1 231.68,-27.39 240.13,-33.77 242.27,-27.1"/>
</g>
<!-- 25&#45;&gt;0 -->
<g id="edge3" class="edge">
<title>25&#45;&gt;0</title>
<path fill="none" stroke="grey" stroke-width="2" d="M68.32,-503.14C73,-476.3 81,-423.9 81,-379 81,-379 81,-379 81,-161 81,-117.63 92.93,-105.06 121,-72 132.32,-58.67 147.8,-47.37 162.13,-38.66"/>
<polygon fill="grey" stroke="grey" stroke-width="2" points="163.73,-41.78 170.65,-33.76 160.24,-35.71 163.73,-41.78"/>
</g>
</g>
</svg>
