<?xml version="1.0" encoding="UTF-8" standalone="no"?>
<!DOCTYPE svg PUBLIC "-//W3C//DTD SVG 1.1//EN"
 "http://www.w3.org/Graphics/SVG/1.1/DTD/svg11.dtd">
<!-- Generated by graphviz version 7.0.1 (20221109.1506)
 -->
<!-- Title: snakemake_dag Pages: 1 -->
<svg width="465pt" height="1273pt"
 viewBox="0.00 0.00 465.00 1273.00" xmlns="http://www.w3.org/2000/svg" xmlns:xlink="http://www.w3.org/1999/xlink">
<g id="graph0" class="graph" transform="scale(1 1) rotate(0) translate(4 1269)">
<title>snakemake_dag</title>
<polygon fill="white" stroke="none" points="-4,4 -4,-1269 461,-1269 461,4 -4,4"/>
<!-- 0 -->
<g id="node1" class="node">
<title>0</title>
<path fill="none" stroke="#97d856" stroke-width="2" d="M216,-36C216,-36 186,-36 186,-36 180,-36 174,-30 174,-24 174,-24 174,-12 174,-12 174,-6 180,0 186,0 186,0 216,0 216,0 222,0 228,-6 228,-12 228,-12 228,-24 228,-24 228,-30 222,-36 216,-36"/>
<text text-anchor="middle" x="201" y="-15.5" font-family="sans" font-size="10.00">all</text>
</g>
<!-- 1 -->
<g id="node2" class="node">
<title>1</title>
<path fill="none" stroke="#c6d856" stroke-width="2" d="M259.5,-108C259.5,-108 142.5,-108 142.5,-108 136.5,-108 130.5,-102 130.5,-96 130.5,-96 130.5,-84 130.5,-84 130.5,-78 136.5,-72 142.5,-72 142.5,-72 259.5,-72 259.5,-72 265.5,-72 271.5,-78 271.5,-84 271.5,-84 271.5,-96 271.5,-96 271.5,-102 265.5,-108 259.5,-108"/>
<text text-anchor="middle" x="201" y="-87.5" font-family="sans" font-size="10.00">gatk_split_multi_allelic_sites</text>
</g>
<!-- 1&#45;&gt;0 -->
<g id="edge1" class="edge">
<title>1&#45;&gt;0</title>
<path fill="none" stroke="grey" stroke-width="2" d="M201,-71.34C201,-64.75 201,-57.08 201,-49.67"/>
<polygon fill="grey" stroke="grey" stroke-width="2" points="204.5,-49.93 201,-39.93 197.5,-49.93 204.5,-49.93"/>
</g>
<!-- 2 -->
<g id="node3" class="node">
<title>2</title>
<path fill="none" stroke="#d8d356" stroke-width="2" d="M251.5,-180C251.5,-180 150.5,-180 150.5,-180 144.5,-180 138.5,-174 138.5,-168 138.5,-168 138.5,-156 138.5,-156 138.5,-150 144.5,-144 150.5,-144 150.5,-144 251.5,-144 251.5,-144 257.5,-144 263.5,-150 263.5,-156 263.5,-156 263.5,-168 263.5,-168 263.5,-174 257.5,-180 251.5,-180"/>
<text text-anchor="middle" x="201" y="-159.5" font-family="sans" font-size="10.00">gatk_filter_contamination</text>
</g>
<!-- 2&#45;&gt;1 -->
<g id="edge4" class="edge">
<title>2&#45;&gt;1</title>
<path fill="none" stroke="grey" stroke-width="2" d="M201,-143.34C201,-136.75 201,-129.08 201,-121.67"/>
<polygon fill="grey" stroke="grey" stroke-width="2" points="204.5,-121.93 201,-111.93 197.5,-121.93 204.5,-121.93"/>
</g>
<!-- 3 -->
<g id="node4" class="node">
<title>3</title>
<path fill="none" stroke="#d85656" stroke-width="2" d="M303.5,-324C303.5,-324 220.5,-324 220.5,-324 214.5,-324 208.5,-318 208.5,-312 208.5,-312 208.5,-300 208.5,-300 208.5,-294 214.5,-288 220.5,-288 220.5,-288 303.5,-288 303.5,-288 309.5,-288 315.5,-294 315.5,-300 315.5,-300 315.5,-312 315.5,-312 315.5,-318 309.5,-324 303.5,-324"/>
<text text-anchor="middle" x="262" y="-303.5" font-family="sans" font-size="10.00">gatk_select_variants</text>
</g>
<!-- 3&#45;&gt;2 -->
<g id="edge5" class="edge">
<title>3&#45;&gt;2</title>
<path fill="none" stroke="grey" stroke-width="2" d="M244.54,-287.29C235.93,-277.6 226.1,-264.96 220,-252 211.35,-233.64 206.6,-211.29 204.01,-193.59"/>
<polygon fill="grey" stroke="grey" stroke-width="2" points="207.5,-193.31 202.77,-183.82 200.56,-194.18 207.5,-193.31"/>
</g>
<!-- 23 -->
<g id="node24" class="node">
<title>23</title>
<path fill="none" stroke="#56d892" stroke-width="2" d="M283,-252C283,-252 241,-252 241,-252 235,-252 229,-246 229,-240 229,-240 229,-228 229,-228 229,-222 235,-216 241,-216 241,-216 283,-216 283,-216 289,-216 295,-222 295,-228 295,-228 295,-240 295,-240 295,-246 289,-252 283,-252"/>
<text text-anchor="middle" x="262" y="-231.5" font-family="sans" font-size="10.00">haplocheck</text>
</g>
<!-- 3&#45;&gt;23 -->
<g id="edge32" class="edge">
<title>3&#45;&gt;23</title>
<path fill="none" stroke="grey" stroke-width="2" d="M262,-287.34C262,-280.75 262,-273.08 262,-265.67"/>
<polygon fill="grey" stroke="grey" stroke-width="2" points="265.5,-265.93 262,-255.93 258.5,-265.93 265.5,-265.93"/>
</g>
<!-- 4 -->
<g id="node5" class="node">
<title>4</title>
<path fill="none" stroke="#56d8c9" stroke-width="2" d="M336,-396C336,-396 198,-396 198,-396 192,-396 186,-390 186,-384 186,-384 186,-372 186,-372 186,-366 192,-360 198,-360 198,-360 336,-360 336,-360 342,-360 348,-366 348,-372 348,-372 348,-384 348,-384 348,-390 342,-396 336,-396"/>
<text text-anchor="middle" x="267" y="-375.5" font-family="sans" font-size="10.00">gatk_left_align_and_trim_variants</text>
</g>
<!-- 4&#45;&gt;3 -->
<g id="edge8" class="edge">
<title>4&#45;&gt;3</title>
<path fill="none" stroke="grey" stroke-width="2" d="M265.74,-359.34C265.27,-352.75 264.72,-345.08 264.19,-337.67"/>
<polygon fill="grey" stroke="grey" stroke-width="2" points="267.7,-337.65 263.49,-327.92 260.72,-338.15 267.7,-337.65"/>
</g>
<!-- 5 -->
<g id="node6" class="node">
<title>5</title>
<path fill="none" stroke="#78d856" stroke-width="2" d="M297,-468C297,-468 211,-468 211,-468 205,-468 199,-462 199,-456 199,-456 199,-444 199,-444 199,-438 205,-432 211,-432 211,-432 297,-432 297,-432 303,-432 309,-438 309,-444 309,-444 309,-456 309,-456 309,-462 303,-468 297,-468"/>
<text text-anchor="middle" x="254" y="-447.5" font-family="sans" font-size="10.00">gatk_variant_filtration</text>
</g>
<!-- 5&#45;&gt;4 -->
<g id="edge9" class="edge">
<title>5&#45;&gt;4</title>
<path fill="none" stroke="grey" stroke-width="2" d="M257.28,-431.34C258.5,-424.75 259.93,-417.08 261.3,-409.67"/>
<polygon fill="grey" stroke="grey" stroke-width="2" points="264.74,-410.35 263.12,-399.88 257.86,-409.07 264.74,-410.35"/>
</g>
<!-- 6 -->
<g id="node7" class="node">
<title>6</title>
<path fill="none" stroke="#56d0d8" stroke-width="2" d="M311.5,-540C311.5,-540 198.5,-540 198.5,-540 192.5,-540 186.5,-534 186.5,-528 186.5,-528 186.5,-516 186.5,-516 186.5,-510 192.5,-504 198.5,-504 198.5,-504 311.5,-504 311.5,-504 317.5,-504 323.5,-510 323.5,-516 323.5,-516 323.5,-528 323.5,-528 323.5,-534 317.5,-540 311.5,-540"/>
<text text-anchor="middle" x="255" y="-519.5" font-family="sans" font-size="10.00">gatk_filter_mutect_calls_mt</text>
</g>
<!-- 6&#45;&gt;5 -->
<g id="edge10" class="edge">
<title>6&#45;&gt;5</title>
<path fill="none" stroke="grey" stroke-width="2" d="M254.75,-503.34C254.65,-496.75 254.54,-489.08 254.44,-481.67"/>
<polygon fill="grey" stroke="grey" stroke-width="2" points="257.94,-481.88 254.3,-471.93 250.94,-481.98 257.94,-481.88"/>
</g>
<!-- 7 -->
<g id="node8" class="node">
<title>7</title>
<path fill="none" stroke="#56b9d8" stroke-width="2" d="M304,-612C304,-612 236,-612 236,-612 230,-612 224,-606 224,-600 224,-600 224,-588 224,-588 224,-582 230,-576 236,-576 236,-576 304,-576 304,-576 310,-576 316,-582 316,-588 316,-588 316,-600 316,-600 316,-606 310,-612 304,-612"/>
<text text-anchor="middle" x="270" y="-591.5" font-family="sans" font-size="10.00">gatk_merge_vcfs</text>
</g>
<!-- 7&#45;&gt;6 -->
<g id="edge11" class="edge">
<title>7&#45;&gt;6</title>
<path fill="none" stroke="grey" stroke-width="2" d="M266.21,-575.34C264.79,-568.67 263.12,-560.89 261.51,-553.39"/>
<polygon fill="grey" stroke="grey" stroke-width="2" points="264.99,-552.91 259.47,-543.86 258.14,-554.37 264.99,-552.91"/>
</g>
<!-- 8 -->
<g id="node9" class="node">
<title>8</title>
<path fill="none" stroke="#56d8a9" stroke-width="2" d="M256,-684C256,-684 186,-684 186,-684 180,-684 174,-678 174,-672 174,-672 174,-660 174,-660 174,-654 180,-648 186,-648 186,-648 256,-648 256,-648 262,-648 268,-654 268,-660 268,-660 268,-672 268,-672 268,-678 262,-684 256,-684"/>
<text text-anchor="middle" x="221" y="-663.5" font-family="sans" font-size="10.00">gatk_lift_over_vcf</text>
</g>
<!-- 8&#45;&gt;7 -->
<g id="edge13" class="edge">
<title>8&#45;&gt;7</title>
<path fill="none" stroke="grey" stroke-width="2" d="M233.36,-647.34C238.43,-640.1 244.43,-631.53 250.08,-623.45"/>
<polygon fill="grey" stroke="grey" stroke-width="2" points="252.87,-625.58 255.73,-615.38 247.13,-621.57 252.87,-625.58"/>
</g>
<!-- 9 -->
<g id="node10" class="node">
<title>9</title>
<path fill="none" stroke="#568ad8" stroke-width="2" d="M172,-756C172,-756 120,-756 120,-756 114,-756 108,-750 108,-744 108,-744 108,-732 108,-732 108,-726 114,-720 120,-720 120,-720 172,-720 172,-720 178,-720 184,-726 184,-732 184,-732 184,-744 184,-744 184,-750 178,-756 172,-756"/>
<text text-anchor="middle" x="146" y="-735.5" font-family="sans" font-size="10.00">gatk_mutect2</text>
</g>
<!-- 9&#45;&gt;8 -->
<g id="edge15" class="edge">
<title>9&#45;&gt;8</title>
<path fill="none" stroke="grey" stroke-width="2" d="M164.93,-719.34C173.3,-711.52 183.33,-702.16 192.57,-693.53"/>
<polygon fill="grey" stroke="grey" stroke-width="2" points="194.68,-696.35 199.61,-686.97 189.91,-691.23 194.68,-696.35"/>
</g>
<!-- 22 -->
<g id="node23" class="node">
<title>22</title>
<path fill="none" stroke="#56a2d8" stroke-width="2" d="M193.5,-612C193.5,-612 122.5,-612 122.5,-612 116.5,-612 110.5,-606 110.5,-600 110.5,-600 110.5,-588 110.5,-588 110.5,-582 116.5,-576 122.5,-576 122.5,-576 193.5,-576 193.5,-576 199.5,-576 205.5,-582 205.5,-588 205.5,-588 205.5,-600 205.5,-600 205.5,-606 199.5,-612 193.5,-612"/>
<text text-anchor="middle" x="158" y="-591.5" font-family="sans" font-size="10.00">gatk_merge_stats</text>
</g>
<!-- 9&#45;&gt;22 -->
<g id="edge31" class="edge">
<title>9&#45;&gt;22</title>
<path fill="none" stroke="grey" stroke-width="2" d="M147.52,-719.02C149.5,-695.54 153.01,-654.11 155.41,-625.64"/>
<polygon fill="grey" stroke="grey" stroke-width="2" points="158.88,-626.11 156.24,-615.85 151.91,-625.52 158.88,-626.11"/>
</g>
<!-- 10 -->
<g id="node11" class="node">
<title>10</title>
<path fill="none" stroke="#d8bc56" stroke-width="2" d="M161.5,-828C161.5,-828 104.5,-828 104.5,-828 98.5,-828 92.5,-822 92.5,-816 92.5,-816 92.5,-804 92.5,-804 92.5,-798 98.5,-792 104.5,-792 104.5,-792 161.5,-792 161.5,-792 167.5,-792 173.5,-798 173.5,-804 173.5,-804 173.5,-816 173.5,-816 173.5,-822 167.5,-828 161.5,-828"/>
<text text-anchor="middle" x="133" y="-807.5" font-family="sans" font-size="10.00">gatk_sort_sam</text>
</g>
<!-- 10&#45;&gt;9 -->
<g id="edge16" class="edge">
<title>10&#45;&gt;9</title>
<path fill="none" stroke="grey" stroke-width="2" d="M136.28,-791.34C137.5,-784.75 138.93,-777.08 140.3,-769.67"/>
<polygon fill="grey" stroke="grey" stroke-width="2" points="143.74,-770.35 142.12,-759.88 136.86,-769.07 143.74,-770.35"/>
</g>
<!-- 25 -->
<g id="node26" class="node">
<title>25</title>
<path fill="none" stroke="#d8a456" stroke-width="2" d="M118,-540C118,-540 12,-540 12,-540 6,-540 0,-534 0,-528 0,-528 0,-516 0,-516 0,-510 6,-504 12,-504 12,-504 118,-504 118,-504 124,-504 130,-510 130,-516 130,-516 130,-528 130,-528 130,-534 124,-540 118,-540"/>
<text text-anchor="middle" x="65" y="-519.5" font-family="sans" font-size="10.00">gatk_collect_wgs_metrics</text>
</g>
<!-- 10&#45;&gt;25 -->
<g id="edge34" class="edge">
<title>10&#45;&gt;25</title>
<path fill="none" stroke="grey" stroke-width="2" d="M118.99,-791.39C111.87,-781.53 103.75,-768.7 99,-756 73.18,-686.92 66.87,-599.49 65.39,-553.88"/>
<polygon fill="grey" stroke="grey" stroke-width="2" points="68.89,-553.81 65.14,-543.9 61.89,-553.99 68.89,-553.81"/>
</g>
<!-- 11 -->
<g id="node12" class="node">
<title>11</title>
<path fill="none" stroke="#afd856" stroke-width="2" d="M177,-900C177,-900 89,-900 89,-900 83,-900 77,-894 77,-888 77,-888 77,-876 77,-876 77,-870 83,-864 89,-864 89,-864 177,-864 177,-864 183,-864 189,-870 189,-876 189,-876 189,-888 189,-888 189,-894 183,-900 177,-900"/>
<text text-anchor="middle" x="133" y="-879.5" font-family="sans" font-size="10.00">gatk_mark_duplicates</text>
</g>
<!-- 11&#45;&gt;10 -->
<g id="edge17" class="edge">
<title>11&#45;&gt;10</title>
<path fill="none" stroke="grey" stroke-width="2" d="M133,-863.34C133,-856.75 133,-849.08 133,-841.67"/>
<polygon fill="grey" stroke="grey" stroke-width="2" points="136.5,-841.93 133,-831.93 129.5,-841.93 136.5,-841.93"/>
</g>
<!-- 12 -->
<g id="node13" class="node">
<title>12</title>
<path fill="none" stroke="#5673d8" stroke-width="2" d="M190.5,-972C190.5,-972 75.5,-972 75.5,-972 69.5,-972 63.5,-966 63.5,-960 63.5,-960 63.5,-948 63.5,-948 63.5,-942 69.5,-936 75.5,-936 75.5,-936 190.5,-936 190.5,-936 196.5,-936 202.5,-942 202.5,-948 202.5,-948 202.5,-960 202.5,-960 202.5,-966 196.5,-972 190.5,-972"/>
<text text-anchor="middle" x="133" y="-951.5" font-family="sans" font-size="10.00">gatk_merge_bam_alignment</text>
</g>
<!-- 12&#45;&gt;11 -->
<g id="edge18" class="edge">
<title>12&#45;&gt;11</title>
<path fill="none" stroke="grey" stroke-width="2" d="M133,-935.34C133,-928.75 133,-921.08 133,-913.67"/>
<polygon fill="grey" stroke="grey" stroke-width="2" points="136.5,-913.93 133,-903.93 129.5,-913.93 136.5,-913.93"/>
</g>
<!-- 13 -->
<g id="node14" class="node">
<title>13</title>
<path fill="none" stroke="#61d856" stroke-width="2" d="M218,-1044C218,-1044 146,-1044 146,-1044 140,-1044 134,-1038 134,-1032 134,-1032 134,-1020 134,-1020 134,-1014 140,-1008 146,-1008 146,-1008 218,-1008 218,-1008 224,-1008 230,-1014 230,-1020 230,-1020 230,-1032 230,-1032 230,-1038 224,-1044 218,-1044"/>
<text text-anchor="middle" x="182" y="-1029" font-family="sans" font-size="10.00">bwa_mem_mito_mito</text>
<text text-anchor="middle" x="182" y="-1018" font-family="sans" font-size="10.00">mt_ref: mt_shifted</text>
</g>
<!-- 13&#45;&gt;12 -->
<g id="edge19" class="edge">
<title>13&#45;&gt;12</title>
<path fill="none" stroke="grey" stroke-width="2" d="M169.64,-1007.34C164.57,-1000.1 158.57,-991.53 152.92,-983.45"/>
<polygon fill="grey" stroke="grey" stroke-width="2" points="155.87,-981.57 147.27,-975.38 150.13,-985.58 155.87,-981.57"/>
</g>
<!-- 14 -->
<g id="node15" class="node">
<title>14</title>
<path fill="none" stroke="#d88556" stroke-width="2" d="M260,-1116C260,-1116 184,-1116 184,-1116 178,-1116 172,-1110 172,-1104 172,-1104 172,-1092 172,-1092 172,-1086 178,-1080 184,-1080 184,-1080 260,-1080 260,-1080 266,-1080 272,-1086 272,-1092 272,-1092 272,-1104 272,-1104 272,-1110 266,-1116 260,-1116"/>
<text text-anchor="middle" x="222" y="-1095.5" font-family="sans" font-size="10.00">gatk_sam_to_fastq</text>
</g>
<!-- 14&#45;&gt;13 -->
<g id="edge21" class="edge">
<title>14&#45;&gt;13</title>
<path fill="none" stroke="grey" stroke-width="2" d="M211.91,-1079.34C207.86,-1072.26 203.1,-1063.92 198.57,-1056"/>
<polygon fill="grey" stroke="grey" stroke-width="2" points="201.73,-1054.48 193.73,-1047.53 195.65,-1057.95 201.73,-1054.48"/>
</g>
<!-- 21 -->
<g id="node22" class="node">
<title>21</title>
<path fill="none" stroke="#61d856" stroke-width="2" d="M298,-1044C298,-1044 260,-1044 260,-1044 254,-1044 248,-1038 248,-1032 248,-1032 248,-1020 248,-1020 248,-1014 254,-1008 260,-1008 260,-1008 298,-1008 298,-1008 304,-1008 310,-1014 310,-1020 310,-1020 310,-1032 310,-1032 310,-1038 304,-1044 298,-1044"/>
<text text-anchor="middle" x="279" y="-1029" font-family="sans" font-size="10.00">bwa_mem</text>
<text text-anchor="middle" x="279" y="-1018" font-family="sans" font-size="10.00">mt_ref: mt</text>
</g>
<!-- 14&#45;&gt;21 -->
<g id="edge29" class="edge">
<title>14&#45;&gt;21</title>
<path fill="none" stroke="grey" stroke-width="2" d="M236.38,-1079.34C242.41,-1071.93 249.57,-1063.14 256.28,-1054.9"/>
<polygon fill="grey" stroke="grey" stroke-width="2" points="258.91,-1057.21 262.51,-1047.25 253.48,-1052.79 258.91,-1057.21"/>
</g>
<!-- 15 -->
<g id="node16" class="node">
<title>15</title>
<path fill="none" stroke="#56d87b" stroke-width="2" d="M254.5,-1188C254.5,-1188 189.5,-1188 189.5,-1188 183.5,-1188 177.5,-1182 177.5,-1176 177.5,-1176 177.5,-1164 177.5,-1164 177.5,-1158 183.5,-1152 189.5,-1152 189.5,-1152 254.5,-1152 254.5,-1152 260.5,-1152 266.5,-1158 266.5,-1164 266.5,-1164 266.5,-1176 266.5,-1176 266.5,-1182 260.5,-1188 254.5,-1188"/>
<text text-anchor="middle" x="222" y="-1167.5" font-family="sans" font-size="10.00">gatk_revert_sam</text>
</g>
<!-- 15&#45;&gt;12 -->
<g id="edge20" class="edge">
<title>15&#45;&gt;12</title>
<path fill="none" stroke="grey" stroke-width="2" d="M198.34,-1151.05C186.76,-1141.49 173.16,-1129.03 163,-1116 140.75,-1087.47 133.7,-1079.12 125,-1044 120.27,-1024.89 122.19,-1002.87 125.34,-985.5"/>
<polygon fill="grey" stroke="grey" stroke-width="2" points="128.71,-986.46 127.33,-975.96 121.86,-985.03 128.71,-986.46"/>
</g>
<!-- 15&#45;&gt;14 -->
<g id="edge22" class="edge">
<title>15&#45;&gt;14</title>
<path fill="none" stroke="grey" stroke-width="2" d="M222,-1151.34C222,-1144.75 222,-1137.08 222,-1129.67"/>
<polygon fill="grey" stroke="grey" stroke-width="2" points="225.5,-1129.93 222,-1119.93 218.5,-1129.93 225.5,-1129.93"/>
</g>
<!-- 20 -->
<g id="node21" class="node">
<title>20</title>
<path fill="none" stroke="#5673d8" stroke-width="2" d="M388.5,-972C388.5,-972 273.5,-972 273.5,-972 267.5,-972 261.5,-966 261.5,-960 261.5,-960 261.5,-948 261.5,-948 261.5,-942 267.5,-936 273.5,-936 273.5,-936 388.5,-936 388.5,-936 394.5,-936 400.5,-942 400.5,-948 400.5,-948 400.5,-960 400.5,-960 400.5,-966 394.5,-972 388.5,-972"/>
<text text-anchor="middle" x="331" y="-951.5" font-family="sans" font-size="10.00">gatk_merge_bam_alignment</text>
</g>
<!-- 15&#45;&gt;20 -->
<g id="edge28" class="edge">
<title>15&#45;&gt;20</title>
<path fill="none" stroke="grey" stroke-width="2" d="M245.66,-1151.05C257.24,-1141.49 270.84,-1129.03 281,-1116 303.25,-1087.47 307.97,-1078.46 319,-1044 325.04,-1025.14 328.04,-1003.08 329.53,-985.64"/>
<polygon fill="grey" stroke="grey" stroke-width="2" points="333.01,-986.04 330.22,-975.82 326.03,-985.55 333.01,-986.04"/>
</g>
<!-- 16 -->
<g id="node17" class="node">
<title>16</title>
<path fill="none" stroke="#56d863" stroke-width="2" d="M257.5,-1265C257.5,-1265 186.5,-1265 186.5,-1265 180.5,-1265 174.5,-1259 174.5,-1253 174.5,-1253 174.5,-1236 174.5,-1236 174.5,-1230 180.5,-1224 186.5,-1224 186.5,-1224 257.5,-1224 257.5,-1224 263.5,-1224 269.5,-1230 269.5,-1236 269.5,-1236 269.5,-1253 269.5,-1253 269.5,-1259 263.5,-1265 257.5,-1265"/>
<text text-anchor="middle" x="222" y="-1253" font-family="sans" font-size="10.00">gatk_print_reads</text>
<text text-anchor="middle" x="222" y="-1242" font-family="sans" font-size="10.00">sample: NA12878</text>
<text text-anchor="middle" x="222" y="-1231" font-family="sans" font-size="10.00">type: N</text>
</g>
<!-- 16&#45;&gt;15 -->
<g id="edge23" class="edge">
<title>16&#45;&gt;15</title>
<path fill="none" stroke="grey" stroke-width="2" d="M222,-1223.3C222,-1216.58 222,-1208.93 222,-1201.6"/>
<polygon fill="grey" stroke="grey" stroke-width="2" points="225.5,-1201.65 222,-1191.65 218.5,-1201.65 225.5,-1201.65"/>
</g>
<!-- 17 -->
<g id="node18" class="node">
<title>17</title>
<path fill="none" stroke="#568ad8" stroke-width="2" d="M350,-684C350,-684 298,-684 298,-684 292,-684 286,-678 286,-672 286,-672 286,-660 286,-660 286,-654 292,-648 298,-648 298,-648 350,-648 350,-648 356,-648 362,-654 362,-660 362,-660 362,-672 362,-672 362,-678 356,-684 350,-684"/>
<text text-anchor="middle" x="324" y="-663.5" font-family="sans" font-size="10.00">gatk_mutect2</text>
</g>
<!-- 17&#45;&gt;7 -->
<g id="edge14" class="edge">
<title>17&#45;&gt;7</title>
<path fill="none" stroke="grey" stroke-width="2" d="M310.37,-647.34C304.73,-640.01 298.03,-631.34 291.74,-623.18"/>
<polygon fill="grey" stroke="grey" stroke-width="2" points="294.54,-621.08 285.66,-615.3 289,-625.35 294.54,-621.08"/>
</g>
<!-- 17&#45;&gt;22 -->
<g id="edge30" class="edge">
<title>17&#45;&gt;22</title>
<path fill="none" stroke="grey" stroke-width="2" d="M285.08,-648.59C263.36,-639.43 235.96,-627.87 212.16,-617.84"/>
<polygon fill="grey" stroke="grey" stroke-width="2" points="213.82,-614.74 203.25,-614.08 211.1,-621.19 213.82,-614.74"/>
</g>
<!-- 18 -->
<g id="node19" class="node">
<title>18</title>
<path fill="none" stroke="#d8bc56" stroke-width="2" d="M359.5,-756C359.5,-756 302.5,-756 302.5,-756 296.5,-756 290.5,-750 290.5,-744 290.5,-744 290.5,-732 290.5,-732 290.5,-726 296.5,-720 302.5,-720 302.5,-720 359.5,-720 359.5,-720 365.5,-720 371.5,-726 371.5,-732 371.5,-732 371.5,-744 371.5,-744 371.5,-750 365.5,-756 359.5,-756"/>
<text text-anchor="middle" x="331" y="-735.5" font-family="sans" font-size="10.00">gatk_sort_sam</text>
</g>
<!-- 18&#45;&gt;17 -->
<g id="edge24" class="edge">
<title>18&#45;&gt;17</title>
<path fill="none" stroke="grey" stroke-width="2" d="M329.23,-719.34C328.58,-712.75 327.81,-705.08 327.07,-697.67"/>
<polygon fill="grey" stroke="grey" stroke-width="2" points="330.57,-697.52 326.09,-687.91 323.6,-698.21 330.57,-697.52"/>
</g>
<!-- 24 -->
<g id="node25" class="node">
<title>24</title>
<path fill="none" stroke="#d8a456" stroke-width="2" d="M445,-468C445,-468 339,-468 339,-468 333,-468 327,-462 327,-456 327,-456 327,-444 327,-444 327,-438 333,-432 339,-432 339,-432 445,-432 445,-432 451,-432 457,-438 457,-444 457,-444 457,-456 457,-456 457,-462 451,-468 445,-468"/>
<text text-anchor="middle" x="392" y="-447.5" font-family="sans" font-size="10.00">gatk_collect_wgs_metrics</text>
</g>
<!-- 18&#45;&gt;24 -->
<g id="edge33" class="edge">
<title>18&#45;&gt;24</title>
<path fill="none" stroke="grey" stroke-width="2" d="M348.24,-719.42C356.62,-709.77 365.94,-697.12 371,-684 397.43,-615.49 397,-527.54 394.47,-481.77"/>
<polygon fill="grey" stroke="grey" stroke-width="2" points="397.98,-481.77 393.84,-472.01 390.99,-482.22 397.98,-481.77"/>
</g>
<!-- 19 -->
<g id="node20" class="node">
<title>19</title>
<path fill="none" stroke="#afd856" stroke-width="2" d="M375,-900C375,-900 287,-900 287,-900 281,-900 275,-894 275,-888 275,-888 275,-876 275,-876 275,-870 281,-864 287,-864 287,-864 375,-864 375,-864 381,-864 387,-870 387,-876 387,-876 387,-888 387,-888 387,-894 381,-900 375,-900"/>
<text text-anchor="middle" x="331" y="-879.5" font-family="sans" font-size="10.00">gatk_mark_duplicates</text>
</g>
<!-- 19&#45;&gt;18 -->
<g id="edge25" class="edge">
<title>19&#45;&gt;18</title>
<path fill="none" stroke="grey" stroke-width="2" d="M331,-863.02C331,-839.54 331,-798.11 331,-769.64"/>
<polygon fill="grey" stroke="grey" stroke-width="2" points="334.5,-769.87 331,-759.87 327.5,-769.87 334.5,-769.87"/>
</g>
<!-- 20&#45;&gt;19 -->
<g id="edge26" class="edge">
<title>20&#45;&gt;19</title>
<path fill="none" stroke="grey" stroke-width="2" d="M331,-935.34C331,-928.75 331,-921.08 331,-913.67"/>
<polygon fill="grey" stroke="grey" stroke-width="2" points="334.5,-913.93 331,-903.93 327.5,-913.93 334.5,-913.93"/>
</g>
<!-- 21&#45;&gt;20 -->
<g id="edge27" class="edge">
<title>21&#45;&gt;20</title>
<path fill="none" stroke="grey" stroke-width="2" d="M292.12,-1007.34C297.56,-1000.01 304.01,-991.34 310.07,-983.18"/>
<polygon fill="grey" stroke="grey" stroke-width="2" points="312.74,-985.45 315.9,-975.33 307.12,-981.27 312.74,-985.45"/>
</g>
<!-- 22&#45;&gt;2 -->
<g id="edge6" class="edge">
<title>22&#45;&gt;2</title>
<path fill="none" stroke="grey" stroke-width="2" d="M158,-575.07C158,-548.13 158,-495.62 158,-451 158,-451 158,-451 158,-305 158,-264.79 173.99,-220.82 186.46,-192.63"/>
<polygon fill="grey" stroke="grey" stroke-width="2" points="189.62,-194.15 190.62,-183.61 183.26,-191.23 189.62,-194.15"/>
</g>
<!-- 22&#45;&gt;6 -->
<g id="edge12" class="edge">
<title>22&#45;&gt;6</title>
<path fill="none" stroke="grey" stroke-width="2" d="M182.73,-575.15C194.02,-567.01 207.59,-557.22 219.9,-548.33"/>
<polygon fill="grey" stroke="grey" stroke-width="2" points="221.8,-551.27 227.86,-542.58 217.71,-545.6 221.8,-551.27"/>
</g>
<!-- 23&#45;&gt;2 -->
<g id="edge7" class="edge">
<title>23&#45;&gt;2</title>
<path fill="none" stroke="grey" stroke-width="2" d="M246.61,-215.34C240.08,-207.85 232.33,-198.95 225.08,-190.63"/>
<polygon fill="grey" stroke="grey" stroke-width="2" points="227.8,-188.42 218.59,-183.18 222.52,-193.02 227.8,-188.42"/>
</g>
<!-- 24&#45;&gt;0 -->
<g id="edge2" class="edge">
<title>24&#45;&gt;0</title>
<path fill="none" stroke="grey" stroke-width="2" d="M390.34,-431.09C388,-404.17 384,-351.69 384,-307 384,-307 384,-307 384,-161 384,-89.15 294.85,-48.42 241,-30.37"/>
<polygon fill="grey" stroke="grey" stroke-width="2" points="242.27,-27.1 231.68,-27.39 240.13,-33.77 242.27,-27.1"/>
</g>
<!-- 25&#45;&gt;0 -->
<g id="edge3" class="edge">
<title>25&#45;&gt;0</title>
<path fill="none" stroke="grey" stroke-width="2" d="M68.32,-503.14C73,-476.3 81,-423.9 81,-379 81,-379 81,-379 81,-161 81,-117.63 92.93,-105.06 121,-72 132.32,-58.67 147.8,-47.37 162.13,-38.66"/>
<polygon fill="grey" stroke="grey" stroke-width="2" points="163.73,-41.78 170.65,-33.76 160.24,-35.71 163.73,-41.78"/>
</g>
</g>
</svg>
