<?xml version="1.0" encoding="UTF-8" standalone="no"?>
<!DOCTYPE svg PUBLIC "-//W3C//DTD SVG 1.1//EN"
 "http://www.w3.org/Graphics/SVG/1.1/DTD/svg11.dtd">
<!-- Generated by graphviz version 7.0.1 (20221109.1506)
 -->
<!-- Title: snakemake_dag Pages: 1 -->
<svg width="356pt" height="1273pt"
 viewBox="0.00 0.00 356.00 1273.00" xmlns="http://www.w3.org/2000/svg" xmlns:xlink="http://www.w3.org/1999/xlink">
<g id="graph0" class="graph" transform="scale(1 1) rotate(0) translate(4 1269)">
<title>snakemake_dag</title>
<polygon fill="white" stroke="none" points="-4,4 -4,-1269 352,-1269 352,4 -4,4"/>
<!-- 0 -->
<g id="node1" class="node">
<title>0</title>
<path fill="none" stroke="#d8a456" stroke-width="2" d="M237,-36C237,-36 207,-36 207,-36 201,-36 195,-30 195,-24 195,-24 195,-12 195,-12 195,-6 201,0 207,0 207,0 237,0 237,0 243,0 249,-6 249,-12 249,-12 249,-24 249,-24 249,-30 243,-36 237,-36"/>
<text text-anchor="middle" x="222" y="-15.5" font-family="sans" font-size="10.00">all</text>
</g>
<!-- 1 -->
<g id="node2" class="node">
<title>1</title>
<path fill="none" stroke="#56c1d8" stroke-width="2" d="M229,-108C229,-108 123,-108 123,-108 117,-108 111,-102 111,-96 111,-96 111,-84 111,-84 111,-78 117,-72 123,-72 123,-72 229,-72 229,-72 235,-72 241,-78 241,-84 241,-84 241,-96 241,-96 241,-102 235,-108 229,-108"/>
<text text-anchor="middle" x="176" y="-87.5" font-family="sans" font-size="10.00">gatk_select_variants_final</text>
</g>
<!-- 1&#45;&gt;0 -->
<g id="edge1" class="edge">
<title>1&#45;&gt;0</title>
<path fill="none" stroke="grey" stroke-width="2" d="M187.61,-71.34C192.31,-64.18 197.87,-55.73 203.12,-47.73"/>
<polygon fill="grey" stroke="grey" stroke-width="2" points="206.01,-49.71 208.57,-39.43 200.16,-45.87 206.01,-49.71"/>
</g>
<!-- 2 -->
<g id="node3" class="node">
<title>2</title>
<path fill="none" stroke="#88d856" stroke-width="2" d="M207.5,-180C207.5,-180 106.5,-180 106.5,-180 100.5,-180 94.5,-174 94.5,-168 94.5,-168 94.5,-156 94.5,-156 94.5,-150 100.5,-144 106.5,-144 106.5,-144 207.5,-144 207.5,-144 213.5,-144 219.5,-150 219.5,-156 219.5,-156 219.5,-168 219.5,-168 219.5,-174 213.5,-180 207.5,-180"/>
<text text-anchor="middle" x="157" y="-159.5" font-family="sans" font-size="10.00">gatk_filter_contamination</text>
</g>
<!-- 2&#45;&gt;1 -->
<g id="edge3" class="edge">
<title>2&#45;&gt;1</title>
<path fill="none" stroke="grey" stroke-width="2" d="M161.79,-143.34C163.6,-136.67 165.72,-128.89 167.75,-121.39"/>
<polygon fill="grey" stroke="grey" stroke-width="2" points="171.11,-122.39 170.35,-111.82 164.35,-120.56 171.11,-122.39"/>
</g>
<!-- 3 -->
<g id="node4" class="node">
<title>3</title>
<path fill="none" stroke="#56d8a2" stroke-width="2" d="M132.5,-324C132.5,-324 49.5,-324 49.5,-324 43.5,-324 37.5,-318 37.5,-312 37.5,-312 37.5,-300 37.5,-300 37.5,-294 43.5,-288 49.5,-288 49.5,-288 132.5,-288 132.5,-288 138.5,-288 144.5,-294 144.5,-300 144.5,-300 144.5,-312 144.5,-312 144.5,-318 138.5,-324 132.5,-324"/>
<text text-anchor="middle" x="91" y="-303.5" font-family="sans" font-size="10.00">gatk_select_variants</text>
</g>
<!-- 3&#45;&gt;2 -->
<g id="edge4" class="edge">
<title>3&#45;&gt;2</title>
<path fill="none" stroke="grey" stroke-width="2" d="M108.18,-287.15C116.71,-277.43 126.55,-264.79 133,-252 142.25,-233.64 148.26,-211.3 151.95,-193.59"/>
<polygon fill="grey" stroke="grey" stroke-width="2" points="155.39,-194.27 153.82,-183.8 148.51,-192.96 155.39,-194.27"/>
</g>
<!-- 23 -->
<g id="node24" class="node">
<title>23</title>
<path fill="none" stroke="#d85656" stroke-width="2" d="M112,-252C112,-252 70,-252 70,-252 64,-252 58,-246 58,-240 58,-240 58,-228 58,-228 58,-222 64,-216 70,-216 70,-216 112,-216 112,-216 118,-216 124,-222 124,-228 124,-228 124,-240 124,-240 124,-246 118,-252 112,-252"/>
<text text-anchor="middle" x="91" y="-231.5" font-family="sans" font-size="10.00">haplocheck</text>
</g>
<!-- 3&#45;&gt;23 -->
<g id="edge31" class="edge">
<title>3&#45;&gt;23</title>
<path fill="none" stroke="grey" stroke-width="2" d="M91,-287.34C91,-280.75 91,-273.08 91,-265.67"/>
<polygon fill="grey" stroke="grey" stroke-width="2" points="94.5,-265.93 91,-255.93 87.5,-265.93 94.5,-265.93"/>
</g>
<!-- 4 -->
<g id="node5" class="node">
<title>4</title>
<path fill="none" stroke="#56d8c1" stroke-width="2" d="M150,-396C150,-396 12,-396 12,-396 6,-396 0,-390 0,-384 0,-384 0,-372 0,-372 0,-366 6,-360 12,-360 12,-360 150,-360 150,-360 156,-360 162,-366 162,-372 162,-372 162,-384 162,-384 162,-390 156,-396 150,-396"/>
<text text-anchor="middle" x="81" y="-375.5" font-family="sans" font-size="10.00">gatk_left_align_and_trim_variants</text>
</g>
<!-- 4&#45;&gt;3 -->
<g id="edge7" class="edge">
<title>4&#45;&gt;3</title>
<path fill="none" stroke="grey" stroke-width="2" d="M83.52,-359.34C84.46,-352.75 85.56,-345.08 86.62,-337.67"/>
<polygon fill="grey" stroke="grey" stroke-width="2" points="90.07,-338.29 88.01,-327.9 83.14,-337.3 90.07,-338.29"/>
</g>
<!-- 5 -->
<g id="node6" class="node">
<title>5</title>
<path fill="none" stroke="#56d88a" stroke-width="2" d="M124,-468C124,-468 38,-468 38,-468 32,-468 26,-462 26,-456 26,-456 26,-444 26,-444 26,-438 32,-432 38,-432 38,-432 124,-432 124,-432 130,-432 136,-438 136,-444 136,-444 136,-456 136,-456 136,-462 130,-468 124,-468"/>
<text text-anchor="middle" x="81" y="-447.5" font-family="sans" font-size="10.00">gatk_variant_filtration</text>
</g>
<!-- 5&#45;&gt;4 -->
<g id="edge8" class="edge">
<title>5&#45;&gt;4</title>
<path fill="none" stroke="grey" stroke-width="2" d="M81,-431.34C81,-424.75 81,-417.08 81,-409.67"/>
<polygon fill="grey" stroke="grey" stroke-width="2" points="84.5,-409.93 81,-399.93 77.5,-409.93 84.5,-409.93"/>
</g>
<!-- 6 -->
<g id="node7" class="node">
<title>6</title>
<path fill="none" stroke="#a7d856" stroke-width="2" d="M137.5,-540C137.5,-540 24.5,-540 24.5,-540 18.5,-540 12.5,-534 12.5,-528 12.5,-528 12.5,-516 12.5,-516 12.5,-510 18.5,-504 24.5,-504 24.5,-504 137.5,-504 137.5,-504 143.5,-504 149.5,-510 149.5,-516 149.5,-516 149.5,-528 149.5,-528 149.5,-534 143.5,-540 137.5,-540"/>
<text text-anchor="middle" x="81" y="-519.5" font-family="sans" font-size="10.00">gatk_filter_mutect_calls_mt</text>
</g>
<!-- 6&#45;&gt;5 -->
<g id="edge9" class="edge">
<title>6&#45;&gt;5</title>
<path fill="none" stroke="grey" stroke-width="2" d="M81,-503.34C81,-496.75 81,-489.08 81,-481.67"/>
<polygon fill="grey" stroke="grey" stroke-width="2" points="84.5,-481.93 81,-471.93 77.5,-481.93 84.5,-481.93"/>
</g>
<!-- 7 -->
<g id="node8" class="node">
<title>7</title>
<path fill="none" stroke="#70d856" stroke-width="2" d="M112,-612C112,-612 44,-612 44,-612 38,-612 32,-606 32,-600 32,-600 32,-588 32,-588 32,-582 38,-576 44,-576 44,-576 112,-576 112,-576 118,-576 124,-582 124,-588 124,-588 124,-600 124,-600 124,-606 118,-612 112,-612"/>
<text text-anchor="middle" x="78" y="-591.5" font-family="sans" font-size="10.00">gatk_merge_vcfs</text>
</g>
<!-- 7&#45;&gt;6 -->
<g id="edge10" class="edge">
<title>7&#45;&gt;6</title>
<path fill="none" stroke="grey" stroke-width="2" d="M78.76,-575.34C79.04,-568.75 79.37,-561.08 79.69,-553.67"/>
<polygon fill="grey" stroke="grey" stroke-width="2" points="83.17,-554.07 80.1,-543.93 76.18,-553.77 83.17,-554.07"/>
</g>
<!-- 8 -->
<g id="node9" class="node">
<title>8</title>
<path fill="none" stroke="#56d873" stroke-width="2" d="M111,-684C111,-684 41,-684 41,-684 35,-684 29,-678 29,-672 29,-672 29,-660 29,-660 29,-654 35,-648 41,-648 41,-648 111,-648 111,-648 117,-648 123,-654 123,-660 123,-660 123,-672 123,-672 123,-678 117,-684 111,-684"/>
<text text-anchor="middle" x="76" y="-663.5" font-family="sans" font-size="10.00">gatk_lift_over_vcf</text>
</g>
<!-- 8&#45;&gt;7 -->
<g id="edge12" class="edge">
<title>8&#45;&gt;7</title>
<path fill="none" stroke="grey" stroke-width="2" d="M76.5,-647.34C76.69,-640.75 76.91,-633.08 77.12,-625.67"/>
<polygon fill="grey" stroke="grey" stroke-width="2" points="80.61,-626.02 77.4,-615.93 73.62,-625.82 80.61,-626.02"/>
</g>
<!-- 9 -->
<g id="node10" class="node">
<title>9</title>
<path fill="none" stroke="#bed856" stroke-width="2" d="M127,-756C127,-756 75,-756 75,-756 69,-756 63,-750 63,-744 63,-744 63,-732 63,-732 63,-726 69,-720 75,-720 75,-720 127,-720 127,-720 133,-720 139,-726 139,-732 139,-732 139,-744 139,-744 139,-750 133,-756 127,-756"/>
<text text-anchor="middle" x="101" y="-735.5" font-family="sans" font-size="10.00">gatk_mutect2</text>
</g>
<!-- 9&#45;&gt;8 -->
<g id="edge14" class="edge">
<title>9&#45;&gt;8</title>
<path fill="none" stroke="grey" stroke-width="2" d="M94.69,-719.34C92.28,-712.59 89.46,-704.69 86.75,-697.11"/>
<polygon fill="grey" stroke="grey" stroke-width="2" points="90.07,-695.99 83.41,-687.75 83.48,-698.35 90.07,-695.99"/>
</g>
<!-- 22 -->
<g id="node23" class="node">
<title>22</title>
<path fill="none" stroke="#56a2d8" stroke-width="2" d="M225.5,-612C225.5,-612 154.5,-612 154.5,-612 148.5,-612 142.5,-606 142.5,-600 142.5,-600 142.5,-588 142.5,-588 142.5,-582 148.5,-576 154.5,-576 154.5,-576 225.5,-576 225.5,-576 231.5,-576 237.5,-582 237.5,-588 237.5,-588 237.5,-600 237.5,-600 237.5,-606 231.5,-612 225.5,-612"/>
<text text-anchor="middle" x="190" y="-591.5" font-family="sans" font-size="10.00">gatk_merge_stats</text>
</g>
<!-- 9&#45;&gt;22 -->
<g id="edge30" class="edge">
<title>9&#45;&gt;22</title>
<path fill="none" stroke="grey" stroke-width="2" d="M112.27,-719.02C127.32,-695.01 154.14,-652.21 172,-623.72"/>
<polygon fill="grey" stroke="grey" stroke-width="2" points="174.87,-625.74 177.21,-615.4 168.94,-622.02 174.87,-625.74"/>
</g>
<!-- 10 -->
<g id="node11" class="node">
<title>10</title>
<path fill="none" stroke="#568ad8" stroke-width="2" d="M129.5,-828C129.5,-828 72.5,-828 72.5,-828 66.5,-828 60.5,-822 60.5,-816 60.5,-816 60.5,-804 60.5,-804 60.5,-798 66.5,-792 72.5,-792 72.5,-792 129.5,-792 129.5,-792 135.5,-792 141.5,-798 141.5,-804 141.5,-804 141.5,-816 141.5,-816 141.5,-822 135.5,-828 129.5,-828"/>
<text text-anchor="middle" x="101" y="-807.5" font-family="sans" font-size="10.00">gatk_sort_sam</text>
</g>
<!-- 10&#45;&gt;9 -->
<g id="edge15" class="edge">
<title>10&#45;&gt;9</title>
<path fill="none" stroke="grey" stroke-width="2" d="M101,-791.34C101,-784.75 101,-777.08 101,-769.67"/>
<polygon fill="grey" stroke="grey" stroke-width="2" points="104.5,-769.93 101,-759.93 97.5,-769.93 104.5,-769.93"/>
</g>
<!-- 11 -->
<g id="node12" class="node">
<title>11</title>
<path fill="none" stroke="#59d856" stroke-width="2" d="M145,-900C145,-900 57,-900 57,-900 51,-900 45,-894 45,-888 45,-888 45,-876 45,-876 45,-870 51,-864 57,-864 57,-864 145,-864 145,-864 151,-864 157,-870 157,-876 157,-876 157,-888 157,-888 157,-894 151,-900 145,-900"/>
<text text-anchor="middle" x="101" y="-879.5" font-family="sans" font-size="10.00">gatk_mark_duplicates</text>
</g>
<!-- 11&#45;&gt;10 -->
<g id="edge16" class="edge">
<title>11&#45;&gt;10</title>
<path fill="none" stroke="grey" stroke-width="2" d="M101,-863.34C101,-856.75 101,-849.08 101,-841.67"/>
<polygon fill="grey" stroke="grey" stroke-width="2" points="104.5,-841.93 101,-831.93 97.5,-841.93 104.5,-841.93"/>
</g>
<!-- 12 -->
<g id="node13" class="node">
<title>12</title>
<path fill="none" stroke="#d88d56" stroke-width="2" d="M158.5,-972C158.5,-972 43.5,-972 43.5,-972 37.5,-972 31.5,-966 31.5,-960 31.5,-960 31.5,-948 31.5,-948 31.5,-942 37.5,-936 43.5,-936 43.5,-936 158.5,-936 158.5,-936 164.5,-936 170.5,-942 170.5,-948 170.5,-948 170.5,-960 170.5,-960 170.5,-966 164.5,-972 158.5,-972"/>
<text text-anchor="middle" x="101" y="-951.5" font-family="sans" font-size="10.00">gatk_merge_bam_alignment</text>
</g>
<!-- 12&#45;&gt;11 -->
<g id="edge17" class="edge">
<title>12&#45;&gt;11</title>
<path fill="none" stroke="grey" stroke-width="2" d="M101,-935.34C101,-928.75 101,-921.08 101,-913.67"/>
<polygon fill="grey" stroke="grey" stroke-width="2" points="104.5,-913.93 101,-903.93 97.5,-913.93 104.5,-913.93"/>
</g>
<!-- 13 -->
<g id="node14" class="node">
<title>13</title>
<path fill="none" stroke="#5673d8" stroke-width="2" d="M167,-1044C167,-1044 95,-1044 95,-1044 89,-1044 83,-1038 83,-1032 83,-1032 83,-1020 83,-1020 83,-1014 89,-1008 95,-1008 95,-1008 167,-1008 167,-1008 173,-1008 179,-1014 179,-1020 179,-1020 179,-1032 179,-1032 179,-1038 173,-1044 167,-1044"/>
<text text-anchor="middle" x="131" y="-1029" font-family="sans" font-size="10.00">bwa_mem_mito</text>
<text text-anchor="middle" x="131" y="-1018" font-family="sans" font-size="10.00">mt_ref: mt_shifted</text>
</g>
<!-- 13&#45;&gt;12 -->
<g id="edge18" class="edge">
<title>13&#45;&gt;12</title>
<path fill="none" stroke="grey" stroke-width="2" d="M123.43,-1007.34C120.5,-1000.51 117.07,-992.5 113.79,-984.83"/>
<polygon fill="grey" stroke="grey" stroke-width="2" points="117.02,-983.5 109.86,-975.68 110.59,-986.25 117.02,-983.5"/>
</g>
<!-- 14 -->
<g id="node15" class="node">
<title>14</title>
<path fill="none" stroke="#d6d856" stroke-width="2" d="M221,-1116C221,-1116 145,-1116 145,-1116 139,-1116 133,-1110 133,-1104 133,-1104 133,-1092 133,-1092 133,-1086 139,-1080 145,-1080 145,-1080 221,-1080 221,-1080 227,-1080 233,-1086 233,-1092 233,-1092 233,-1104 233,-1104 233,-1110 227,-1116 221,-1116"/>
<text text-anchor="middle" x="183" y="-1095.5" font-family="sans" font-size="10.00">gatk_sam_to_fastq</text>
</g>
<!-- 14&#45;&gt;13 -->
<g id="edge20" class="edge">
<title>14&#45;&gt;13</title>
<path fill="none" stroke="grey" stroke-width="2" d="M169.88,-1079.34C164.44,-1072.01 157.99,-1063.34 151.93,-1055.18"/>
<polygon fill="grey" stroke="grey" stroke-width="2" points="154.88,-1053.27 146.1,-1047.33 149.26,-1057.45 154.88,-1053.27"/>
</g>
<!-- 21 -->
<g id="node22" class="node">
<title>21</title>
<path fill="none" stroke="#5673d8" stroke-width="2" d="M271,-1044C271,-1044 209,-1044 209,-1044 203,-1044 197,-1038 197,-1032 197,-1032 197,-1020 197,-1020 197,-1014 203,-1008 209,-1008 209,-1008 271,-1008 271,-1008 277,-1008 283,-1014 283,-1020 283,-1020 283,-1032 283,-1032 283,-1038 277,-1044 271,-1044"/>
<text text-anchor="middle" x="240" y="-1029" font-family="sans" font-size="10.00">bwa_mem_mito</text>
<text text-anchor="middle" x="240" y="-1018" font-family="sans" font-size="10.00">mt_ref: mt</text>
</g>
<!-- 14&#45;&gt;21 -->
<g id="edge28" class="edge">
<title>14&#45;&gt;21</title>
<path fill="none" stroke="grey" stroke-width="2" d="M197.38,-1079.34C203.41,-1071.93 210.57,-1063.14 217.28,-1054.9"/>
<polygon fill="grey" stroke="grey" stroke-width="2" points="219.91,-1057.21 223.51,-1047.25 214.48,-1052.79 219.91,-1057.21"/>
</g>
<!-- 15 -->
<g id="node16" class="node">
<title>15</title>
<path fill="none" stroke="#d86e56" stroke-width="2" d="M215.5,-1188C215.5,-1188 150.5,-1188 150.5,-1188 144.5,-1188 138.5,-1182 138.5,-1176 138.5,-1176 138.5,-1164 138.5,-1164 138.5,-1158 144.5,-1152 150.5,-1152 150.5,-1152 215.5,-1152 215.5,-1152 221.5,-1152 227.5,-1158 227.5,-1164 227.5,-1164 227.5,-1176 227.5,-1176 227.5,-1182 221.5,-1188 215.5,-1188"/>
<text text-anchor="middle" x="183" y="-1167.5" font-family="sans" font-size="10.00">gatk_revert_sam</text>
</g>
<!-- 15&#45;&gt;12 -->
<g id="edge19" class="edge">
<title>15&#45;&gt;12</title>
<path fill="none" stroke="grey" stroke-width="2" d="M158.34,-1151.21C130.88,-1129.57 88.46,-1090.16 74,-1044 69.22,-1028.73 70.27,-1023.56 74,-1008 75.94,-999.93 79.32,-991.7 83.05,-984.2"/>
<polygon fill="grey" stroke="grey" stroke-width="2" points="86.1,-985.93 87.8,-975.47 79.95,-982.58 86.1,-985.93"/>
</g>
<!-- 15&#45;&gt;14 -->
<g id="edge21" class="edge">
<title>15&#45;&gt;14</title>
<path fill="none" stroke="grey" stroke-width="2" d="M183,-1151.34C183,-1144.75 183,-1137.08 183,-1129.67"/>
<polygon fill="grey" stroke="grey" stroke-width="2" points="186.5,-1129.93 183,-1119.93 179.5,-1129.93 186.5,-1129.93"/>
</g>
<!-- 20 -->
<g id="node21" class="node">
<title>20</title>
<path fill="none" stroke="#d88d56" stroke-width="2" d="M327.5,-972C327.5,-972 212.5,-972 212.5,-972 206.5,-972 200.5,-966 200.5,-960 200.5,-960 200.5,-948 200.5,-948 200.5,-942 206.5,-936 212.5,-936 212.5,-936 327.5,-936 327.5,-936 333.5,-936 339.5,-942 339.5,-948 339.5,-948 339.5,-960 339.5,-960 339.5,-966 333.5,-972 327.5,-972"/>
<text text-anchor="middle" x="270" y="-951.5" font-family="sans" font-size="10.00">gatk_merge_bam_alignment</text>
</g>
<!-- 15&#45;&gt;20 -->
<g id="edge27" class="edge">
<title>15&#45;&gt;20</title>
<path fill="none" stroke="grey" stroke-width="2" d="M207.66,-1151.21C235.12,-1129.57 277.54,-1090.16 292,-1044 298.12,-1024.44 292.52,-1002.05 285.44,-984.61"/>
<polygon fill="grey" stroke="grey" stroke-width="2" points="288.71,-983.35 281.41,-975.67 282.33,-986.22 288.71,-983.35"/>
</g>
<!-- 16 -->
<g id="node17" class="node">
<title>16</title>
<path fill="none" stroke="#d8bc56" stroke-width="2" d="M218.5,-1265C218.5,-1265 147.5,-1265 147.5,-1265 141.5,-1265 135.5,-1259 135.5,-1253 135.5,-1253 135.5,-1236 135.5,-1236 135.5,-1230 141.5,-1224 147.5,-1224 147.5,-1224 218.5,-1224 218.5,-1224 224.5,-1224 230.5,-1230 230.5,-1236 230.5,-1236 230.5,-1253 230.5,-1253 230.5,-1259 224.5,-1265 218.5,-1265"/>
<text text-anchor="middle" x="183" y="-1253" font-family="sans" font-size="10.00">gatk_print_reads</text>
<text text-anchor="middle" x="183" y="-1242" font-family="sans" font-size="10.00">sample: NA12878</text>
<text text-anchor="middle" x="183" y="-1231" font-family="sans" font-size="10.00">type: N</text>
</g>
<!-- 16&#45;&gt;15 -->
<g id="edge22" class="edge">
<title>16&#45;&gt;15</title>
<path fill="none" stroke="grey" stroke-width="2" d="M183,-1223.3C183,-1216.58 183,-1208.93 183,-1201.6"/>
<polygon fill="grey" stroke="grey" stroke-width="2" points="186.5,-1201.65 183,-1191.65 179.5,-1201.65 186.5,-1201.65"/>
</g>
<!-- 17 -->
<g id="node18" class="node">
<title>17</title>
<path fill="none" stroke="#bed856" stroke-width="2" d="M243,-684C243,-684 191,-684 191,-684 185,-684 179,-678 179,-672 179,-672 179,-660 179,-660 179,-654 185,-648 191,-648 191,-648 243,-648 243,-648 249,-648 255,-654 255,-660 255,-660 255,-672 255,-672 255,-678 249,-684 243,-684"/>
<text text-anchor="middle" x="217" y="-663.5" font-family="sans" font-size="10.00">gatk_mutect2</text>
</g>
<!-- 17&#45;&gt;7 -->
<g id="edge13" class="edge">
<title>17&#45;&gt;7</title>
<path fill="none" stroke="grey" stroke-width="2" d="M181.56,-647.15C164.33,-638.47 143.38,-627.92 124.84,-618.59"/>
<polygon fill="grey" stroke="grey" stroke-width="2" points="126.58,-615.55 116.07,-614.17 123.43,-621.8 126.58,-615.55"/>
</g>
<!-- 17&#45;&gt;22 -->
<g id="edge29" class="edge">
<title>17&#45;&gt;22</title>
<path fill="none" stroke="grey" stroke-width="2" d="M210.19,-647.34C207.55,-640.51 204.46,-632.5 201.51,-624.83"/>
<polygon fill="grey" stroke="grey" stroke-width="2" points="204.86,-623.8 197.99,-615.73 198.33,-626.32 204.86,-623.8"/>
</g>
<!-- 18 -->
<g id="node19" class="node">
<title>18</title>
<path fill="none" stroke="#568ad8" stroke-width="2" d="M298.5,-756C298.5,-756 241.5,-756 241.5,-756 235.5,-756 229.5,-750 229.5,-744 229.5,-744 229.5,-732 229.5,-732 229.5,-726 235.5,-720 241.5,-720 241.5,-720 298.5,-720 298.5,-720 304.5,-720 310.5,-726 310.5,-732 310.5,-732 310.5,-744 310.5,-744 310.5,-750 304.5,-756 298.5,-756"/>
<text text-anchor="middle" x="270" y="-735.5" font-family="sans" font-size="10.00">gatk_sort_sam</text>
</g>
<!-- 18&#45;&gt;17 -->
<g id="edge23" class="edge">
<title>18&#45;&gt;17</title>
<path fill="none" stroke="grey" stroke-width="2" d="M256.63,-719.34C251.08,-712.01 244.51,-703.34 238.33,-695.18"/>
<polygon fill="grey" stroke="grey" stroke-width="2" points="241.21,-693.18 232.38,-687.32 235.63,-697.4 241.21,-693.18"/>
</g>
<!-- 24 -->
<g id="node25" class="node">
<title>24</title>
<path fill="none" stroke="#56d8d8" stroke-width="2" d="M336,-540C336,-540 230,-540 230,-540 224,-540 218,-534 218,-528 218,-528 218,-516 218,-516 218,-510 224,-504 230,-504 230,-504 336,-504 336,-504 342,-504 348,-510 348,-516 348,-516 348,-528 348,-528 348,-534 342,-540 336,-540"/>
<text text-anchor="middle" x="283" y="-519.5" font-family="sans" font-size="10.00">gatk_collect_wgs_metrics</text>
</g>
<!-- 18&#45;&gt;24 -->
<g id="edge32" class="edge">
<title>18&#45;&gt;24</title>
<path fill="none" stroke="grey" stroke-width="2" d="M271.09,-719.12C273.3,-682.62 278.38,-599.13 281.13,-553.74"/>
<polygon fill="grey" stroke="grey" stroke-width="2" points="284.61,-554.19 281.72,-544 277.62,-553.77 284.61,-554.19"/>
</g>
<!-- 19 -->
<g id="node20" class="node">
<title>19</title>
<path fill="none" stroke="#59d856" stroke-width="2" d="M314,-900C314,-900 226,-900 226,-900 220,-900 214,-894 214,-888 214,-888 214,-876 214,-876 214,-870 220,-864 226,-864 226,-864 314,-864 314,-864 320,-864 326,-870 326,-876 326,-876 326,-888 326,-888 326,-894 320,-900 314,-900"/>
<text text-anchor="middle" x="270" y="-879.5" font-family="sans" font-size="10.00">gatk_mark_duplicates</text>
</g>
<!-- 19&#45;&gt;18 -->
<g id="edge24" class="edge">
<title>19&#45;&gt;18</title>
<path fill="none" stroke="grey" stroke-width="2" d="M270,-863.02C270,-839.54 270,-798.11 270,-769.64"/>
<polygon fill="grey" stroke="grey" stroke-width="2" points="273.5,-769.87 270,-759.87 266.5,-769.87 273.5,-769.87"/>
</g>
<!-- 20&#45;&gt;19 -->
<g id="edge25" class="edge">
<title>20&#45;&gt;19</title>
<path fill="none" stroke="grey" stroke-width="2" d="M270,-935.34C270,-928.75 270,-921.08 270,-913.67"/>
<polygon fill="grey" stroke="grey" stroke-width="2" points="273.5,-913.93 270,-903.93 266.5,-913.93 273.5,-913.93"/>
</g>
<!-- 21&#45;&gt;20 -->
<g id="edge26" class="edge">
<title>21&#45;&gt;20</title>
<path fill="none" stroke="grey" stroke-width="2" d="M247.57,-1007.34C250.5,-1000.51 253.93,-992.5 257.21,-984.83"/>
<polygon fill="grey" stroke="grey" stroke-width="2" points="260.41,-986.25 261.14,-975.68 253.98,-983.5 260.41,-986.25"/>
</g>
<!-- 22&#45;&gt;2 -->
<g id="edge5" class="edge">
<title>22&#45;&gt;2</title>
<path fill="none" stroke="grey" stroke-width="2" d="M190,-575.07C190,-548.13 190,-495.62 190,-451 190,-451 190,-451 190,-305 190,-265.45 177.71,-221.28 168.13,-192.86"/>
<polygon fill="grey" stroke="grey" stroke-width="2" points="171.45,-191.76 164.84,-183.48 164.84,-194.08 171.45,-191.76"/>
</g>
<!-- 22&#45;&gt;6 -->
<g id="edge11" class="edge">
<title>22&#45;&gt;6</title>
<path fill="none" stroke="grey" stroke-width="2" d="M162.21,-575.15C149.27,-566.84 133.66,-556.82 119.6,-547.79"/>
<polygon fill="grey" stroke="grey" stroke-width="2" points="121.59,-544.91 111.28,-542.45 117.81,-550.8 121.59,-544.91"/>
</g>
<!-- 23&#45;&gt;2 -->
<g id="edge6" class="edge">
<title>23&#45;&gt;2</title>
<path fill="none" stroke="grey" stroke-width="2" d="M107.65,-215.34C114.79,-207.77 123.29,-198.75 131.21,-190.35"/>
<polygon fill="grey" stroke="grey" stroke-width="2" points="133.73,-192.78 138.04,-183.1 128.64,-187.98 133.73,-192.78"/>
</g>
<!-- 24&#45;&gt;0 -->
<g id="edge2" class="edge">
<title>24&#45;&gt;0</title>
<path fill="none" stroke="grey" stroke-width="2" d="M281.96,-503.07C280.5,-476.15 278,-423.65 278,-379 278,-379 278,-379 278,-161 278,-119.49 257.04,-75.62 240.76,-47.82"/>
<polygon fill="grey" stroke="grey" stroke-width="2" points="243.91,-46.25 235.72,-39.52 237.93,-49.89 243.91,-46.25"/>
</g>
</g>
</svg>
