<?xml version="1.0" encoding="UTF-8" standalone="no"?>
<!DOCTYPE svg PUBLIC "-//W3C//DTD SVG 1.1//EN"
 "http://www.w3.org/Graphics/SVG/1.1/DTD/svg11.dtd">
<!-- Generated by graphviz version 7.0.1 (20221109.1506)
 -->
<!-- Title: snakemake_dag Pages: 1 -->
<svg width="248pt" height="1268pt"
 viewBox="0.00 0.00 247.50 1268.00" xmlns="http://www.w3.org/2000/svg" xmlns:xlink="http://www.w3.org/1999/xlink">
<g id="graph0" class="graph" transform="scale(1 1) rotate(0) translate(4 1264)">
<title>snakemake_dag</title>
<polygon fill="white" stroke="none" points="-4,4 -4,-1264 243.5,-1264 243.5,4 -4,4"/>
<!-- 0 -->
<g id="node1" class="node">
<title>0</title>
<path fill="none" stroke="#56d0d8" stroke-width="2" d="M146,-36C146,-36 116,-36 116,-36 110,-36 104,-30 104,-24 104,-24 104,-12 104,-12 104,-6 110,0 116,0 116,0 146,0 146,0 152,0 158,-6 158,-12 158,-12 158,-24 158,-24 158,-30 152,-36 146,-36"/>
<text text-anchor="middle" x="131" y="-15.5" font-family="sans" font-size="10.00">all</text>
</g>
<!-- 1 -->
<g id="node2" class="node">
<title>1</title>
<path fill="none" stroke="#56d8c9" stroke-width="2" d="M189.5,-108C189.5,-108 72.5,-108 72.5,-108 66.5,-108 60.5,-102 60.5,-96 60.5,-96 60.5,-84 60.5,-84 60.5,-78 66.5,-72 72.5,-72 72.5,-72 189.5,-72 189.5,-72 195.5,-72 201.5,-78 201.5,-84 201.5,-84 201.5,-96 201.5,-96 201.5,-102 195.5,-108 189.5,-108"/>
<text text-anchor="middle" x="131" y="-87.5" font-family="sans" font-size="10.00">gatk_split_multi_allelic_sites</text>
</g>
<!-- 1&#45;&gt;0 -->
<g id="edge1" class="edge">
<title>1&#45;&gt;0</title>
<path fill="none" stroke="grey" stroke-width="2" d="M131,-71.34C131,-64.75 131,-57.08 131,-49.67"/>
<polygon fill="grey" stroke="grey" stroke-width="2" points="134.5,-49.93 131,-39.93 127.5,-49.93 134.5,-49.93"/>
</g>
<!-- 2 -->
<g id="node3" class="node">
<title>2</title>
<path fill="none" stroke="#c6d856" stroke-width="2" d="M181.5,-180C181.5,-180 80.5,-180 80.5,-180 74.5,-180 68.5,-174 68.5,-168 68.5,-168 68.5,-156 68.5,-156 68.5,-150 74.5,-144 80.5,-144 80.5,-144 181.5,-144 181.5,-144 187.5,-144 193.5,-150 193.5,-156 193.5,-156 193.5,-168 193.5,-168 193.5,-174 187.5,-180 181.5,-180"/>
<text text-anchor="middle" x="131" y="-159.5" font-family="sans" font-size="10.00">gatk_filter_contamination</text>
</g>
<!-- 2&#45;&gt;1 -->
<g id="edge2" class="edge">
<title>2&#45;&gt;1</title>
<path fill="none" stroke="grey" stroke-width="2" d="M131,-143.34C131,-136.75 131,-129.08 131,-121.67"/>
<polygon fill="grey" stroke="grey" stroke-width="2" points="134.5,-121.93 131,-111.93 127.5,-121.93 134.5,-121.93"/>
</g>
<!-- 3 -->
<g id="node4" class="node">
<title>3</title>
<path fill="none" stroke="#568ad8" stroke-width="2" d="M122.5,-324C122.5,-324 39.5,-324 39.5,-324 33.5,-324 27.5,-318 27.5,-312 27.5,-312 27.5,-300 27.5,-300 27.5,-294 33.5,-288 39.5,-288 39.5,-288 122.5,-288 122.5,-288 128.5,-288 134.5,-294 134.5,-300 134.5,-300 134.5,-312 134.5,-312 134.5,-318 128.5,-324 122.5,-324"/>
<text text-anchor="middle" x="81" y="-303.5" font-family="sans" font-size="10.00">gatk_select_variants</text>
</g>
<!-- 3&#45;&gt;2 -->
<g id="edge3" class="edge">
<title>3&#45;&gt;2</title>
<path fill="none" stroke="grey" stroke-width="2" d="M79.67,-287.25C78.95,-268.78 79.68,-239.34 89,-216 92.59,-207 98.23,-198.3 104.22,-190.64"/>
<polygon fill="grey" stroke="grey" stroke-width="2" points="106.72,-193.11 110.5,-183.21 101.37,-188.59 106.72,-193.11"/>
</g>
<!-- 18 -->
<g id="node19" class="node">
<title>18</title>
<path fill="none" stroke="#56d8a9" stroke-width="2" d="M152,-252C152,-252 110,-252 110,-252 104,-252 98,-246 98,-240 98,-240 98,-228 98,-228 98,-222 104,-216 110,-216 110,-216 152,-216 152,-216 158,-216 164,-222 164,-228 164,-228 164,-240 164,-240 164,-246 158,-252 152,-252"/>
<text text-anchor="middle" x="131" y="-231.5" font-family="sans" font-size="10.00">haplocheck</text>
</g>
<!-- 3&#45;&gt;18 -->
<g id="edge23" class="edge">
<title>3&#45;&gt;18</title>
<path fill="none" stroke="grey" stroke-width="2" d="M93.62,-287.34C98.79,-280.1 104.91,-271.53 110.68,-263.45"/>
<polygon fill="grey" stroke="grey" stroke-width="2" points="113.49,-265.54 116.45,-255.37 107.79,-261.47 113.49,-265.54"/>
</g>
<!-- 4 -->
<g id="node5" class="node">
<title>4</title>
<path fill="none" stroke="#d88556" stroke-width="2" d="M150,-396C150,-396 12,-396 12,-396 6,-396 0,-390 0,-384 0,-384 0,-372 0,-372 0,-366 6,-360 12,-360 12,-360 150,-360 150,-360 156,-360 162,-366 162,-372 162,-372 162,-384 162,-384 162,-390 156,-396 150,-396"/>
<text text-anchor="middle" x="81" y="-375.5" font-family="sans" font-size="10.00">gatk_left_align_and_trim_variants</text>
</g>
<!-- 4&#45;&gt;3 -->
<g id="edge6" class="edge">
<title>4&#45;&gt;3</title>
<path fill="none" stroke="grey" stroke-width="2" d="M81,-359.34C81,-352.75 81,-345.08 81,-337.67"/>
<polygon fill="grey" stroke="grey" stroke-width="2" points="84.5,-337.93 81,-327.93 77.5,-337.93 84.5,-337.93"/>
</g>
<!-- 5 -->
<g id="node6" class="node">
<title>5</title>
<path fill="none" stroke="#56d87b" stroke-width="2" d="M124,-468C124,-468 38,-468 38,-468 32,-468 26,-462 26,-456 26,-456 26,-444 26,-444 26,-438 32,-432 38,-432 38,-432 124,-432 124,-432 130,-432 136,-438 136,-444 136,-444 136,-456 136,-456 136,-462 130,-468 124,-468"/>
<text text-anchor="middle" x="81" y="-447.5" font-family="sans" font-size="10.00">gatk_variant_filtration</text>
</g>
<!-- 5&#45;&gt;4 -->
<g id="edge7" class="edge">
<title>5&#45;&gt;4</title>
<path fill="none" stroke="grey" stroke-width="2" d="M81,-431.34C81,-424.75 81,-417.08 81,-409.67"/>
<polygon fill="grey" stroke="grey" stroke-width="2" points="84.5,-409.93 81,-399.93 77.5,-409.93 84.5,-409.93"/>
</g>
<!-- 6 -->
<g id="node7" class="node">
<title>6</title>
<path fill="none" stroke="#56d863" stroke-width="2" d="M137.5,-540C137.5,-540 24.5,-540 24.5,-540 18.5,-540 12.5,-534 12.5,-528 12.5,-528 12.5,-516 12.5,-516 12.5,-510 18.5,-504 24.5,-504 24.5,-504 137.5,-504 137.5,-504 143.5,-504 149.5,-510 149.5,-516 149.5,-516 149.5,-528 149.5,-528 149.5,-534 143.5,-540 137.5,-540"/>
<text text-anchor="middle" x="81" y="-519.5" font-family="sans" font-size="10.00">gatk_filter_mutect_calls_mt</text>
</g>
<!-- 6&#45;&gt;5 -->
<g id="edge8" class="edge">
<title>6&#45;&gt;5</title>
<path fill="none" stroke="grey" stroke-width="2" d="M81,-503.34C81,-496.75 81,-489.08 81,-481.67"/>
<polygon fill="grey" stroke="grey" stroke-width="2" points="84.5,-481.93 81,-471.93 77.5,-481.93 84.5,-481.93"/>
</g>
<!-- 7 -->
<g id="node8" class="node">
<title>7</title>
<path fill="none" stroke="#56d892" stroke-width="2" d="M114,-612C114,-612 46,-612 46,-612 40,-612 34,-606 34,-600 34,-600 34,-588 34,-588 34,-582 40,-576 46,-576 46,-576 114,-576 114,-576 120,-576 126,-582 126,-588 126,-588 126,-600 126,-600 126,-606 120,-612 114,-612"/>
<text text-anchor="middle" x="80" y="-591.5" font-family="sans" font-size="10.00">gatk_merge_vcfs</text>
</g>
<!-- 7&#45;&gt;6 -->
<g id="edge10" class="edge">
<title>7&#45;&gt;6</title>
<path fill="none" stroke="grey" stroke-width="2" d="M80.25,-575.34C80.35,-568.75 80.46,-561.08 80.56,-553.67"/>
<polygon fill="grey" stroke="grey" stroke-width="2" points="84.06,-553.98 80.7,-543.93 77.06,-553.88 84.06,-553.98"/>
</g>
<!-- 8 -->
<g id="node9" class="node">
<title>8</title>
<path fill="none" stroke="#5673d8" stroke-width="2" d="M152,-684C152,-684 82,-684 82,-684 76,-684 70,-678 70,-672 70,-672 70,-660 70,-660 70,-654 76,-648 82,-648 82,-648 152,-648 152,-648 158,-648 164,-654 164,-660 164,-660 164,-672 164,-672 164,-678 158,-684 152,-684"/>
<text text-anchor="middle" x="117" y="-663.5" font-family="sans" font-size="10.00">gatk_lift_over_vcf</text>
</g>
<!-- 8&#45;&gt;7 -->
<g id="edge11" class="edge">
<title>8&#45;&gt;7</title>
<path fill="none" stroke="grey" stroke-width="2" d="M107.66,-647.34C103.97,-640.34 99.62,-632.12 95.48,-624.28"/>
<polygon fill="grey" stroke="grey" stroke-width="2" points="98.64,-622.78 90.88,-615.58 92.46,-626.05 98.64,-622.78"/>
</g>
<!-- 9 -->
<g id="node10" class="node">
<title>9</title>
<path fill="none" stroke="#97d856" stroke-width="2" d="M143,-756C143,-756 91,-756 91,-756 85,-756 79,-750 79,-744 79,-744 79,-732 79,-732 79,-726 85,-720 91,-720 91,-720 143,-720 143,-720 149,-720 155,-726 155,-732 155,-732 155,-744 155,-744 155,-750 149,-756 143,-756"/>
<text text-anchor="middle" x="117" y="-735.5" font-family="sans" font-size="10.00">gatk_mutect2</text>
</g>
<!-- 9&#45;&gt;7 -->
<g id="edge12" class="edge">
<title>9&#45;&gt;7</title>
<path fill="none" stroke="grey" stroke-width="2" d="M89.99,-719.11C78.8,-710.06 67.03,-698.02 61,-684 52.86,-665.08 57.93,-642.35 64.88,-624.6"/>
<polygon fill="grey" stroke="grey" stroke-width="2" points="68.08,-626.01 68.89,-615.45 61.67,-623.2 68.08,-626.01"/>
</g>
<!-- 9&#45;&gt;8 -->
<g id="edge13" class="edge">
<title>9&#45;&gt;8</title>
<path fill="none" stroke="grey" stroke-width="2" d="M117,-719.34C117,-712.75 117,-705.08 117,-697.67"/>
<polygon fill="grey" stroke="grey" stroke-width="2" points="120.5,-697.93 117,-687.93 113.5,-697.93 120.5,-697.93"/>
</g>
<!-- 17 -->
<g id="node18" class="node">
<title>17</title>
<path fill="none" stroke="#78d856" stroke-width="2" d="M227.5,-612C227.5,-612 156.5,-612 156.5,-612 150.5,-612 144.5,-606 144.5,-600 144.5,-600 144.5,-588 144.5,-588 144.5,-582 150.5,-576 156.5,-576 156.5,-576 227.5,-576 227.5,-576 233.5,-576 239.5,-582 239.5,-588 239.5,-588 239.5,-600 239.5,-600 239.5,-606 233.5,-612 227.5,-612"/>
<text text-anchor="middle" x="192" y="-591.5" font-family="sans" font-size="10.00">gatk_merge_stats</text>
</g>
<!-- 9&#45;&gt;17 -->
<g id="edge22" class="edge">
<title>9&#45;&gt;17</title>
<path fill="none" stroke="grey" stroke-width="2" d="M141.82,-719.17C152.98,-709.9 165.33,-697.66 173,-684 183,-666.19 187.74,-643.68 189.99,-625.75"/>
<polygon fill="grey" stroke="grey" stroke-width="2" points="193.47,-626.12 190.99,-615.82 186.51,-625.42 193.47,-626.12"/>
</g>
<!-- 10 -->
<g id="node11" class="node">
<title>10</title>
<path fill="none" stroke="#d8d356" stroke-width="2" d="M145.5,-828C145.5,-828 88.5,-828 88.5,-828 82.5,-828 76.5,-822 76.5,-816 76.5,-816 76.5,-804 76.5,-804 76.5,-798 82.5,-792 88.5,-792 88.5,-792 145.5,-792 145.5,-792 151.5,-792 157.5,-798 157.5,-804 157.5,-804 157.5,-816 157.5,-816 157.5,-822 151.5,-828 145.5,-828"/>
<text text-anchor="middle" x="117" y="-807.5" font-family="sans" font-size="10.00">gatk_sort_sam</text>
</g>
<!-- 10&#45;&gt;9 -->
<g id="edge14" class="edge">
<title>10&#45;&gt;9</title>
<path fill="none" stroke="grey" stroke-width="2" d="M117,-791.34C117,-784.75 117,-777.08 117,-769.67"/>
<polygon fill="grey" stroke="grey" stroke-width="2" points="120.5,-769.93 117,-759.93 113.5,-769.93 120.5,-769.93"/>
</g>
<!-- 11 -->
<g id="node12" class="node">
<title>11</title>
<path fill="none" stroke="#56b9d8" stroke-width="2" d="M161,-900C161,-900 73,-900 73,-900 67,-900 61,-894 61,-888 61,-888 61,-876 61,-876 61,-870 67,-864 73,-864 73,-864 161,-864 161,-864 167,-864 173,-870 173,-876 173,-876 173,-888 173,-888 173,-894 167,-900 161,-900"/>
<text text-anchor="middle" x="117" y="-879.5" font-family="sans" font-size="10.00">gatk_mark_duplicates</text>
</g>
<!-- 11&#45;&gt;10 -->
<g id="edge15" class="edge">
<title>11&#45;&gt;10</title>
<path fill="none" stroke="grey" stroke-width="2" d="M117,-863.34C117,-856.75 117,-849.08 117,-841.67"/>
<polygon fill="grey" stroke="grey" stroke-width="2" points="120.5,-841.93 117,-831.93 113.5,-841.93 120.5,-841.93"/>
</g>
<!-- 12 -->
<g id="node13" class="node">
<title>12</title>
<path fill="none" stroke="#d85656" stroke-width="2" d="M174.5,-972C174.5,-972 59.5,-972 59.5,-972 53.5,-972 47.5,-966 47.5,-960 47.5,-960 47.5,-948 47.5,-948 47.5,-942 53.5,-936 59.5,-936 59.5,-936 174.5,-936 174.5,-936 180.5,-936 186.5,-942 186.5,-948 186.5,-948 186.5,-960 186.5,-960 186.5,-966 180.5,-972 174.5,-972"/>
<text text-anchor="middle" x="117" y="-951.5" font-family="sans" font-size="10.00">gatk_merge_bam_alignment</text>
</g>
<!-- 12&#45;&gt;11 -->
<g id="edge16" class="edge">
<title>12&#45;&gt;11</title>
<path fill="none" stroke="grey" stroke-width="2" d="M117,-935.34C117,-928.75 117,-921.08 117,-913.67"/>
<polygon fill="grey" stroke="grey" stroke-width="2" points="120.5,-913.93 117,-903.93 113.5,-913.93 120.5,-913.93"/>
</g>
<!-- 13 -->
<g id="node14" class="node">
<title>13</title>
<path fill="none" stroke="#d86e56" stroke-width="2" d="M175,-1044C175,-1044 137,-1044 137,-1044 131,-1044 125,-1038 125,-1032 125,-1032 125,-1020 125,-1020 125,-1014 131,-1008 137,-1008 137,-1008 175,-1008 175,-1008 181,-1008 187,-1014 187,-1020 187,-1020 187,-1032 187,-1032 187,-1038 181,-1044 175,-1044"/>
<text text-anchor="middle" x="156" y="-1023.5" font-family="sans" font-size="10.00">bwa_mem</text>
</g>
<!-- 13&#45;&gt;12 -->
<g id="edge17" class="edge">
<title>13&#45;&gt;12</title>
<path fill="none" stroke="grey" stroke-width="2" d="M146.16,-1007.34C142.26,-1000.34 137.68,-992.12 133.31,-984.28"/>
<polygon fill="grey" stroke="grey" stroke-width="2" points="136.37,-982.58 128.45,-975.55 130.26,-985.99 136.37,-982.58"/>
</g>
<!-- 14 -->
<g id="node15" class="node">
<title>14</title>
<path fill="none" stroke="#d8bc56" stroke-width="2" d="M204,-1116C204,-1116 128,-1116 128,-1116 122,-1116 116,-1110 116,-1104 116,-1104 116,-1092 116,-1092 116,-1086 122,-1080 128,-1080 128,-1080 204,-1080 204,-1080 210,-1080 216,-1086 216,-1092 216,-1092 216,-1104 216,-1104 216,-1110 210,-1116 204,-1116"/>
<text text-anchor="middle" x="166" y="-1095.5" font-family="sans" font-size="10.00">gatk_sam_to_fastq</text>
</g>
<!-- 14&#45;&gt;13 -->
<g id="edge19" class="edge">
<title>14&#45;&gt;13</title>
<path fill="none" stroke="grey" stroke-width="2" d="M163.48,-1079.34C162.54,-1072.75 161.44,-1065.08 160.38,-1057.67"/>
<polygon fill="grey" stroke="grey" stroke-width="2" points="163.86,-1057.3 158.99,-1047.9 156.93,-1058.29 163.86,-1057.3"/>
</g>
<!-- 15 -->
<g id="node16" class="node">
<title>15</title>
<path fill="none" stroke="#61d856" stroke-width="2" d="M159.5,-1188C159.5,-1188 94.5,-1188 94.5,-1188 88.5,-1188 82.5,-1182 82.5,-1176 82.5,-1176 82.5,-1164 82.5,-1164 82.5,-1158 88.5,-1152 94.5,-1152 94.5,-1152 159.5,-1152 159.5,-1152 165.5,-1152 171.5,-1158 171.5,-1164 171.5,-1164 171.5,-1176 171.5,-1176 171.5,-1182 165.5,-1188 159.5,-1188"/>
<text text-anchor="middle" x="127" y="-1167.5" font-family="sans" font-size="10.00">gatk_revert_sam</text>
</g>
<!-- 15&#45;&gt;12 -->
<g id="edge18" class="edge">
<title>15&#45;&gt;12</title>
<path fill="none" stroke="grey" stroke-width="2" d="M118.49,-1151.31C114.1,-1141.22 109.22,-1128.19 107,-1116 98.78,-1070.92 105.15,-1017.69 110.82,-985.15"/>
<polygon fill="grey" stroke="grey" stroke-width="2" points="114.22,-986 112.61,-975.53 107.34,-984.72 114.22,-986"/>
</g>
<!-- 15&#45;&gt;14 -->
<g id="edge20" class="edge">
<title>15&#45;&gt;14</title>
<path fill="none" stroke="grey" stroke-width="2" d="M136.84,-1151.34C140.74,-1144.34 145.32,-1136.12 149.69,-1128.28"/>
<polygon fill="grey" stroke="grey" stroke-width="2" points="152.74,-1129.99 154.55,-1119.55 146.63,-1126.58 152.74,-1129.99"/>
</g>
<!-- 16 -->
<g id="node17" class="node">
<title>16</title>
<path fill="none" stroke="#56a2d8" stroke-width="2" d="M159.5,-1260C159.5,-1260 94.5,-1260 94.5,-1260 88.5,-1260 82.5,-1254 82.5,-1248 82.5,-1248 82.5,-1236 82.5,-1236 82.5,-1230 88.5,-1224 94.5,-1224 94.5,-1224 159.5,-1224 159.5,-1224 165.5,-1224 171.5,-1230 171.5,-1236 171.5,-1236 171.5,-1248 171.5,-1248 171.5,-1254 165.5,-1260 159.5,-1260"/>
<text text-anchor="middle" x="127" y="-1239.5" font-family="sans" font-size="10.00">gatk_print_reads</text>
</g>
<!-- 16&#45;&gt;15 -->
<g id="edge21" class="edge">
<title>16&#45;&gt;15</title>
<path fill="none" stroke="grey" stroke-width="2" d="M127,-1223.34C127,-1216.75 127,-1209.08 127,-1201.67"/>
<polygon fill="grey" stroke="grey" stroke-width="2" points="130.5,-1201.93 127,-1191.93 123.5,-1201.93 130.5,-1201.93"/>
</g>
<!-- 17&#45;&gt;2 -->
<g id="edge4" class="edge">
<title>17&#45;&gt;2</title>
<path fill="none" stroke="grey" stroke-width="2" d="M192,-575.07C192,-548.13 192,-495.62 192,-451 192,-451 192,-451 192,-305 192,-264.55 190.24,-252.59 173,-216 168.8,-207.09 162.85,-198.33 156.74,-190.58"/>
<polygon fill="grey" stroke="grey" stroke-width="2" points="159.51,-188.44 150.4,-183.03 154.15,-192.94 159.51,-188.44"/>
</g>
<!-- 17&#45;&gt;6 -->
<g id="edge9" class="edge">
<title>17&#45;&gt;6</title>
<path fill="none" stroke="grey" stroke-width="2" d="M163.7,-575.15C150.39,-566.76 134.31,-556.62 119.88,-547.52"/>
<polygon fill="grey" stroke="grey" stroke-width="2" points="122.13,-544.8 111.81,-542.43 118.4,-550.72 122.13,-544.8"/>
</g>
<!-- 18&#45;&gt;2 -->
<g id="edge5" class="edge">
<title>18&#45;&gt;2</title>
<path fill="none" stroke="grey" stroke-width="2" d="M131,-215.34C131,-208.75 131,-201.08 131,-193.67"/>
<polygon fill="grey" stroke="grey" stroke-width="2" points="134.5,-193.93 131,-183.93 127.5,-193.93 134.5,-193.93"/>
</g>
</g>
</svg>
